<svg width="34" height="33" viewBox="0 0 34 33" fill="none" xmlns="http://www.w3.org/2000/svg">
<path d="M0 3C0 1.34315 1.34315 0 3 0H31C32.6569 0 34 1.34315 34 3V30C34 31.6569 32.6569 33 31 33H3C1.34315 33 0 31.6569 0 30V3Z" fill="#0B132B"/>
<path d="M25 6H15C14.4696 6 13.9609 6.21071 13.5858 6.58579C13.2107 6.96086 13 7.46957 13 8V10H21C21.5304 10 22.0391 10.2107 22.4142 10.5858C22.7893 10.9609 23 11.4696 23 12V20H25C25.5304 20 26.0391 19.7893 26.4142 19.4142C26.7893 19.0391 27 18.5304 27 18V8C27 7.46957 26.7893 6.96086 26.4142 6.58579C26.0391 6.21071 25.5304 6 25 6Z" fill="#3A506B"/>
<path d="M9 26H19C20.103 26 21 25.103 21 24V14C21 12.897 20.103 12 19 12H9C7.897 12 7 12.897 7 14V24C7 25.103 7.897 26 9 26ZM11 16H17V18H11V16ZM11 20H17V22H11V20Z" fill="#3A506B"/>
</svg>