<svg width="63" height="63" viewBox="0 0 63 63" fill="none" xmlns="http://www.w3.org/2000/svg">
<circle cx="31.5" cy="31.5" r="31.5" fill="#1C2541"/>
<g clip-path="url(#clip0)">
<path d="M45.9998 27.5457C45.4215 28.1101 44.736 28.2669 43.9185 28.2599C40.1234 28.2251 36.3319 28.246 32.5368 28.2425C31.8906 28.2425 31.1801 28.3645 30.791 27.6816C30.3983 26.9848 30.9231 26.4832 31.2694 25.9606C33.1937 23.048 35.1002 20.1285 37.0495 17.2334C38.1741 15.5576 38.8738 15.5924 40.0056 17.3239C42.0084 20.3793 44.0006 23.4417 45.9998 26.5006C45.9998 26.849 45.9998 27.1974 45.9998 27.5457ZM37.5065 21.4384C37.5065 22.1039 37.5136 22.508 37.5065 22.9121C37.4922 23.5985 37.5529 24.1071 38.5311 24.1036C39.5593 24.1002 39.4772 23.494 39.4986 22.8599C39.52 22.2258 39.5664 21.5917 39.5522 20.9611C39.545 20.5953 39.7985 20.0553 39.2665 19.9229C38.7667 19.801 38.0884 19.7104 37.71 19.9438C37.0709 20.3306 37.5921 21.1075 37.5065 21.4384ZM39.57 25.6157C39.4879 24.9955 39.113 24.7203 38.4882 24.7273C37.8599 24.7342 37.4458 25.0164 37.4529 25.6435C37.46 26.2811 37.8956 26.5319 38.5168 26.5284C39.1452 26.5284 39.5093 26.2428 39.57 25.6157Z" fill="#FF725E"/>
<path d="M30.6124 23.0202C30.0054 23.9713 29.5556 24.6437 29.1415 25.3335C27.6527 27.8071 29.0058 30.2528 31.9298 30.3225C34.0683 30.3747 36.2104 30.3608 38.3525 30.319C39.1843 30.3051 39.6306 30.3922 39.5984 31.4129C39.5163 34.0816 39.5984 36.7503 39.5592 39.4225C39.5342 41.0843 38.7523 41.8055 36.9958 41.8229C33.9041 41.8508 30.8087 41.8821 27.7205 41.802C26.5888 41.7741 25.8284 42.0493 25.2429 43.0213C24.7323 43.8645 24.0611 44.617 23.4399 45.3939C23.0972 45.8224 22.6795 46.1743 22.069 45.9095C21.5942 45.704 21.4049 45.3138 21.3621 44.7981C21.28 43.8366 21.8405 42.5266 21.1015 42.004C20.4339 41.5302 19.1629 41.8856 18.1632 41.8159C16.8423 41.7253 16.039 41.0007 16.0319 39.7081C15.9962 34.8341 15.9855 29.9567 16.039 25.0827C16.0533 23.6926 16.9887 23.0237 18.3917 23.0202C22.3689 23.0132 26.3496 23.0202 30.6124 23.0202Z" fill="#5BC0BE"/>
</g>
<defs>
<clipPath id="clip0">
<rect width="30" height="30" fill="white" transform="translate(16 16)"/>
</clipPath>
</defs>
</svg>
