<svg width="756" height="274" viewBox="0 0 756 274" fill="none" xmlns="http://www.w3.org/2000/svg">
<g clip-path="url(#clip0)">
<path d="M670 133C695.405 133 716 112.405 716 87C716 61.5949 695.405 41 670 41C644.595 41 624 61.5949 624 87C624 112.405 644.595 133 670 133Z" fill="#1C2541"/>
<path d="M666.231 98.91C665.981 98.91 665.731 98.81 665.551 98.63L655.151 88.23C654.781 87.86 654.781 87.25 655.151 86.88L660.561 81.47C660.931 81.1 661.541 81.1 661.911 81.47L666.221 85.78L676.941 75.06C677.121 74.88 677.361 74.78 677.621 74.78C677.871 74.78 678.121 74.88 678.301 75.06L683.711 80.47C684.081 80.84 684.081 81.45 683.711 81.82L666.901 98.63C666.721 98.81 666.481 98.91 666.231 98.91ZM657.181 87.56L666.231 96.61L681.681 81.16L677.621 77.1L666.901 87.81C666.531 88.18 665.921 88.18 665.551 87.81L661.241 83.5L657.181 87.56Z" fill="#6FFFE9"/>
<path d="M669.43 111.33C668.81 111.33 668.18 111.31 667.55 111.26C661.73 110.81 656.25 108.29 652.12 104.16C647.5 99.5401 644.95 93.3901 644.95 86.8501C644.95 80.3101 647.5 74.1601 652.12 69.5401C656.74 64.9201 662.89 62.3701 669.43 62.3701C675.97 62.3701 682.12 64.9201 686.74 69.5401C690.87 73.6701 693.39 79.1501 693.84 84.9701C694.28 90.7301 692.68 96.4601 689.33 101.12C689.02 101.55 688.42 101.65 688 101.34C687.58 101.03 687.47 100.43 687.78 100.01C694.26 91.0001 693.25 78.7601 685.39 70.9001C676.59 62.1001 662.27 62.1001 653.47 70.9001C644.67 79.7001 644.67 94.0201 653.47 102.82C661.33 110.68 673.57 111.68 682.58 105.21C683.01 104.9 683.61 105 683.91 105.43C684.22 105.86 684.12 106.46 683.69 106.76C679.55 109.73 674.54 111.33 669.43 111.33Z" fill="#6FFFE9"/>
<path d="M686.07 104.44C685.82 104.44 685.57 104.34 685.39 104.16C685.21 103.98 685.11 103.74 685.11 103.48C685.11 103.23 685.21 102.98 685.39 102.8C685.57 102.62 685.81 102.52 686.07 102.52C686.32 102.52 686.57 102.62 686.75 102.8C686.93 102.98 687.03 103.22 687.03 103.48C687.03 103.73 686.93 103.98 686.75 104.16C686.57 104.34 686.32 104.44 686.07 104.44Z" fill="#6FFFE9"/>
<path d="M378 133C403.405 133 424 112.405 424 87C424 61.5949 403.405 41 378 41C352.595 41 332 61.5949 332 87C332 112.405 352.595 133 378 133Z" fill="#1C2541"/>
<path d="M401.89 99.69V73.72H387.46V69.39H391.79V66.5H380.25V69.39H384.58V73.72H352.83V99.69H384.57V104.02H380.24V106.91H391.78V104.02H387.45V99.69H401.89ZM399 76.61V96.81H387.46V76.61H399ZM355.72 96.81V76.61H384.58V96.81H355.72Z" fill="#6FFFE9"/>
<path d="M358.6 79.49V85.26H361.49V82.37H364.38V91.03H361.49V93.92H370.15V91.03H367.26V82.37H370.15V85.26H373.04V79.49H358.6Z" fill="#6FFFE9"/>
<path d="M86 133C111.405 133 132 112.405 132 87C132 61.5949 111.405 41 86 41C60.5949 41 40 61.5949 40 87C40 112.405 60.5949 133 86 133Z" fill="#1C2541"/>
<path d="M105.58 100.43L98.7303 93.5799L102.09 90.2199C102.38 89.9299 102.5 89.5099 102.41 89.1099C102.32 88.7099 102.02 88.3899 101.63 88.2599L81.4603 81.5399C81.0303 81.3999 80.5603 81.5099 80.2403 81.8299C79.9203 82.1499 79.8103 82.6199 79.9503 83.0499L86.6703 103.22C86.8003 103.61 87.1203 103.91 87.5203 104C87.9203 104.09 88.3403 103.98 88.6303 103.68L92.0003 100.3L98.8503 107.15C99.0803 107.38 99.3903 107.5 99.6903 107.5C99.9903 107.5 100.3 107.38 100.53 107.15L105.57 102.11C106.04 101.65 106.04 100.89 105.58 100.43ZM99.7003 104.63L92.8503 97.7799C92.3903 97.3199 91.6303 97.3199 91.1703 97.7799L88.3303 100.62L82.9703 84.5299L99.0603 89.8899L96.2203 92.7299C95.7603 93.1899 95.7603 93.9499 96.2203 94.4099L103.07 101.26L99.7003 104.63Z" fill="#6FFFE9"/>
<path d="M80.8101 76.4399C81.4701 76.4399 82.0001 75.9099 82.0001 75.2499V68.1199C82.0001 67.4599 81.4701 66.9299 80.8101 66.9299C80.1501 66.9299 79.6201 67.4599 79.6201 68.1199V75.2499C79.6201 75.9099 80.1601 76.4399 80.8101 76.4399Z" fill="#6FFFE9"/>
<path d="M71.5699 71.46C71.1099 71 70.3499 71 69.8899 71.46C69.4299 71.92 69.4299 72.68 69.8899 73.14L74.9299 78.18C75.3899 78.64 76.1499 78.64 76.6099 78.18C77.0699 77.72 77.0699 76.96 76.6099 76.5L71.5699 71.46Z" fill="#6FFFE9"/>
<path d="M74.9299 86.59L69.8899 91.63C69.4299 92.09 69.4299 92.85 69.8899 93.3101C70.3499 93.7701 71.1099 93.7701 71.5699 93.3101L76.6099 88.27C77.0699 87.81 77.0699 87.05 76.6099 86.59C76.1499 86.12 75.3899 86.12 74.9299 86.59Z" fill="#6FFFE9"/>
<path d="M86.69 78.18L91.73 73.14C92.19 72.68 92.19 71.92 91.73 71.46C91.27 71 90.51 71 90.05 71.46L85.01 76.5C84.55 76.96 84.55 77.72 85.01 78.18C85.48 78.65 86.23 78.65 86.69 78.18Z" fill="#6FFFE9"/>
<path d="M74.8703 82.3799C74.8703 81.7199 74.3404 81.1899 73.6804 81.1899H66.5504C65.8904 81.1899 65.3604 81.7199 65.3604 82.3799C65.3604 83.0399 65.8904 83.5699 66.5504 83.5699H73.6804C74.3404 83.5699 74.8703 83.0399 74.8703 82.3799Z" fill="#6FFFE9"/>
<path d="M28.0597 172.7C28.0597 171.464 28.3357 170.36 28.8877 169.388C29.4517 168.404 30.2137 167.642 31.1737 167.102C32.1457 166.55 33.2317 166.274 34.4317 166.274C35.8357 166.274 37.0657 166.634 38.1217 167.354C39.1777 168.074 39.9157 169.07 40.3357 170.342H37.4377C37.1497 169.742 36.7417 169.292 36.2137 168.992C35.6977 168.692 35.0977 168.542 34.4137 168.542C33.6817 168.542 33.0277 168.716 32.4517 169.064C31.8877 169.4 31.4437 169.88 31.1197 170.504C30.8077 171.128 30.6517 171.86 30.6517 172.7C30.6517 173.528 30.8077 174.26 31.1197 174.896C31.4437 175.52 31.8877 176.006 32.4517 176.354C33.0277 176.69 33.6817 176.858 34.4137 176.858C35.0977 176.858 35.6977 176.708 36.2137 176.408C36.7417 176.096 37.1497 175.64 37.4377 175.04H40.3357C39.9157 176.324 39.1777 177.326 38.1217 178.046C37.0777 178.754 35.8477 179.108 34.4317 179.108C33.2317 179.108 32.1457 178.838 31.1737 178.298C30.2137 177.746 29.4517 176.984 28.8877 176.012C28.3357 175.04 28.0597 173.936 28.0597 172.7ZM45.0081 165.68V179H42.4881V165.68H45.0081ZM48.7759 167.84C48.3319 167.84 47.9599 167.702 47.6599 167.426C47.3719 167.138 47.2279 166.784 47.2279 166.364C47.2279 165.944 47.3719 165.596 47.6599 165.32C47.9599 165.032 48.3319 164.888 48.7759 164.888C49.2199 164.888 49.5859 165.032 49.8739 165.32C50.1739 165.596 50.3239 165.944 50.3239 166.364C50.3239 166.784 50.1739 167.138 49.8739 167.426C49.5859 167.702 49.2199 167.84 48.7759 167.84ZM50.0179 169.028V179H47.4979V169.028H50.0179ZM51.8596 174.014C51.8596 172.982 52.0696 172.082 52.4896 171.314C52.9096 170.534 53.4916 169.934 54.2356 169.514C54.9796 169.082 55.8316 168.866 56.7916 168.866C58.0276 168.866 59.0476 169.178 59.8516 169.802C60.6676 170.414 61.2136 171.278 61.4896 172.394H58.7716C58.6276 171.962 58.3816 171.626 58.0336 171.386C57.6976 171.134 57.2776 171.008 56.7736 171.008C56.0536 171.008 55.4836 171.272 55.0636 171.8C54.6436 172.316 54.4336 173.054 54.4336 174.014C54.4336 174.962 54.6436 175.7 55.0636 176.228C55.4836 176.744 56.0536 177.002 56.7736 177.002C57.7936 177.002 58.4596 176.546 58.7716 175.634H61.4896C61.2136 176.714 60.6676 177.572 59.8516 178.208C59.0356 178.844 58.0156 179.162 56.7916 179.162C55.8316 179.162 54.9796 178.952 54.2356 178.532C53.4916 178.1 52.9096 177.5 52.4896 176.732C52.0696 175.952 51.8596 175.046 51.8596 174.014ZM69.2398 179L65.8558 174.752V179H63.3358V165.68H65.8558V173.258L69.2038 169.028H72.4798L68.0878 174.032L72.5158 179H69.2398ZM81.0705 171.098V175.922C81.0705 176.258 81.1485 176.504 81.3045 176.66C81.4725 176.804 81.7485 176.876 82.1325 176.876H83.3025V179H81.7185C79.5945 179 78.5325 177.968 78.5325 175.904V171.098H77.3445V169.028H78.5325V166.562H81.0705V169.028H83.3025V171.098H81.0705ZM90.731 168.884C91.487 168.884 92.159 169.052 92.747 169.388C93.335 169.712 93.791 170.198 94.115 170.846C94.451 171.482 94.619 172.25 94.619 173.15V179H92.099V173.492C92.099 172.7 91.901 172.094 91.505 171.674C91.109 171.242 90.569 171.026 89.885 171.026C89.189 171.026 88.637 171.242 88.229 171.674C87.833 172.094 87.635 172.7 87.635 173.492V179H85.115V165.68H87.635V170.27C87.959 169.838 88.391 169.502 88.931 169.262C89.471 169.01 90.071 168.884 90.731 168.884ZM106.285 173.798C106.285 174.158 106.261 174.482 106.213 174.77H98.9234C98.9834 175.49 99.2354 176.054 99.6794 176.462C100.123 176.87 100.669 177.074 101.317 177.074C102.253 177.074 102.919 176.672 103.315 175.868H106.033C105.745 176.828 105.193 177.62 104.377 178.244C103.561 178.856 102.559 179.162 101.371 179.162C100.411 179.162 99.5474 178.952 98.7794 178.532C98.0234 178.1 97.4294 177.494 96.9974 176.714C96.5774 175.934 96.3674 175.034 96.3674 174.014C96.3674 172.982 96.5774 172.076 96.9974 171.296C97.4174 170.516 98.0054 169.916 98.7614 169.496C99.5174 169.076 100.387 168.866 101.371 168.866C102.319 168.866 103.165 169.07 103.909 169.478C104.665 169.886 105.247 170.468 105.655 171.224C106.075 171.968 106.285 172.826 106.285 173.798ZM103.675 173.078C103.663 172.43 103.429 171.914 102.973 171.53C102.517 171.134 101.959 170.936 101.299 170.936C100.675 170.936 100.147 171.128 99.7154 171.512C99.2954 171.884 99.0374 172.406 98.9414 173.078H103.675Z" fill="#FFFFFE"/>
<path d="M114.934 170.486C115.258 170.006 115.702 169.616 116.266 169.316C116.842 169.016 117.496 168.866 118.228 168.866C119.08 168.866 119.848 169.076 120.532 169.496C121.228 169.916 121.774 170.516 122.17 171.296C122.578 172.064 122.782 172.958 122.782 173.978C122.782 174.998 122.578 175.904 122.17 176.696C121.774 177.476 121.228 178.082 120.532 178.514C119.848 178.946 119.08 179.162 118.228 179.162C117.484 179.162 116.83 179.018 116.266 178.73C115.714 178.43 115.27 178.046 114.934 177.578V179H112.414V165.68H114.934V170.486ZM120.208 173.978C120.208 173.378 120.082 172.862 119.83 172.43C119.59 171.986 119.266 171.65 118.858 171.422C118.462 171.194 118.03 171.08 117.562 171.08C117.106 171.08 116.674 171.2 116.266 171.44C115.87 171.668 115.546 172.004 115.294 172.448C115.054 172.892 114.934 173.414 114.934 174.014C114.934 174.614 115.054 175.136 115.294 175.58C115.546 176.024 115.87 176.366 116.266 176.606C116.674 176.834 117.106 176.948 117.562 176.948C118.03 176.948 118.462 176.828 118.858 176.588C119.266 176.348 119.59 176.006 119.83 175.562C120.082 175.118 120.208 174.59 120.208 173.978ZM129.041 179.162C128.081 179.162 127.217 178.952 126.449 178.532C125.681 178.1 125.075 177.494 124.631 176.714C124.199 175.934 123.983 175.034 123.983 174.014C123.983 172.994 124.205 172.094 124.649 171.314C125.105 170.534 125.723 169.934 126.503 169.514C127.283 169.082 128.153 168.866 129.113 168.866C130.073 168.866 130.943 169.082 131.723 169.514C132.503 169.934 133.115 170.534 133.559 171.314C134.015 172.094 134.243 172.994 134.243 174.014C134.243 175.034 134.009 175.934 133.541 176.714C133.085 177.494 132.461 178.1 131.669 178.532C130.889 178.952 130.013 179.162 129.041 179.162ZM129.041 176.966C129.497 176.966 129.923 176.858 130.319 176.642C130.727 176.414 131.051 176.078 131.291 175.634C131.531 175.19 131.651 174.65 131.651 174.014C131.651 173.066 131.399 172.34 130.895 171.836C130.403 171.32 129.797 171.062 129.077 171.062C128.357 171.062 127.751 171.32 127.259 171.836C126.779 172.34 126.539 173.066 126.539 174.014C126.539 174.962 126.773 175.694 127.241 176.21C127.721 176.714 128.321 176.966 129.041 176.966ZM141.6 179L139.548 175.904L137.73 179H135.03L138.288 173.996L134.994 169.028H137.838L139.872 172.106L141.708 169.028H144.408L141.132 173.996L144.444 179H141.6ZM62.2698 197.486C62.5938 197.006 63.0378 196.616 63.6018 196.316C64.1778 196.016 64.8318 195.866 65.5638 195.866C66.4158 195.866 67.1838 196.076 67.8678 196.496C68.5638 196.916 69.1098 197.516 69.5058 198.296C69.9138 199.064 70.1178 199.958 70.1178 200.978C70.1178 201.998 69.9138 202.904 69.5058 203.696C69.1098 204.476 68.5638 205.082 67.8678 205.514C67.1838 205.946 66.4158 206.162 65.5638 206.162C64.8198 206.162 64.1658 206.018 63.6018 205.73C63.0498 205.43 62.6058 205.046 62.2698 204.578V206H59.7498V192.68H62.2698V197.486ZM67.5438 200.978C67.5438 200.378 67.4178 199.862 67.1658 199.43C66.9258 198.986 66.6018 198.65 66.1938 198.422C65.7978 198.194 65.3658 198.08 64.8978 198.08C64.4418 198.08 64.0098 198.2 63.6018 198.44C63.2058 198.668 62.8818 199.004 62.6298 199.448C62.3898 199.892 62.2698 200.414 62.2698 201.014C62.2698 201.614 62.3898 202.136 62.6298 202.58C62.8818 203.024 63.2058 203.366 63.6018 203.606C64.0098 203.834 64.4418 203.948 64.8978 203.948C65.3658 203.948 65.7978 203.828 66.1938 203.588C66.6018 203.348 66.9258 203.006 67.1658 202.562C67.4178 202.118 67.5438 201.59 67.5438 200.978ZM81.219 200.798C81.219 201.158 81.195 201.482 81.147 201.77H73.857C73.917 202.49 74.169 203.054 74.613 203.462C75.057 203.87 75.603 204.074 76.251 204.074C77.187 204.074 77.853 203.672 78.249 202.868H80.967C80.679 203.828 80.127 204.62 79.311 205.244C78.495 205.856 77.493 206.162 76.305 206.162C75.345 206.162 74.481 205.952 73.713 205.532C72.957 205.1 72.363 204.494 71.931 203.714C71.511 202.934 71.301 202.034 71.301 201.014C71.301 199.982 71.511 199.076 71.931 198.296C72.351 197.516 72.939 196.916 73.695 196.496C74.451 196.076 75.321 195.866 76.305 195.866C77.253 195.866 78.099 196.07 78.843 196.478C79.599 196.886 80.181 197.468 80.589 198.224C81.009 198.968 81.219 199.826 81.219 200.798ZM78.609 200.078C78.597 199.43 78.363 198.914 77.907 198.53C77.451 198.134 76.893 197.936 76.233 197.936C75.609 197.936 75.081 198.128 74.649 198.512C74.229 198.884 73.971 199.406 73.875 200.078H78.609ZM85.5784 192.68V206H83.0584V192.68H85.5784ZM92.4962 206.162C91.5362 206.162 90.6722 205.952 89.9042 205.532C89.1362 205.1 88.5302 204.494 88.0862 203.714C87.6542 202.934 87.4382 202.034 87.4382 201.014C87.4382 199.994 87.6602 199.094 88.1042 198.314C88.5602 197.534 89.1782 196.934 89.9582 196.514C90.7382 196.082 91.6082 195.866 92.5682 195.866C93.5282 195.866 94.3982 196.082 95.1782 196.514C95.9582 196.934 96.5702 197.534 97.0142 198.314C97.4702 199.094 97.6982 199.994 97.6982 201.014C97.6982 202.034 97.4642 202.934 96.9962 203.714C96.5402 204.494 95.9162 205.1 95.1242 205.532C94.3442 205.952 93.4682 206.162 92.4962 206.162ZM92.4962 203.966C92.9522 203.966 93.3782 203.858 93.7742 203.642C94.1822 203.414 94.5062 203.078 94.7462 202.634C94.9862 202.19 95.1062 201.65 95.1062 201.014C95.1062 200.066 94.8542 199.34 94.3502 198.836C93.8582 198.32 93.2522 198.062 92.5322 198.062C91.8122 198.062 91.2062 198.32 90.7142 198.836C90.2342 199.34 89.9942 200.066 89.9942 201.014C89.9942 201.962 90.2282 202.694 90.6962 203.21C91.1762 203.714 91.7762 203.966 92.4962 203.966ZM113.371 196.028L110.455 206H107.737L105.919 199.034L104.101 206H101.365L98.4307 196.028H100.987L102.751 203.624L104.659 196.028H107.323L109.195 203.606L110.959 196.028H113.371Z" fill="#6FFFE9"/>
<path d="M320.934 166.436V168.47H317.586V179H315.066V168.47H311.718V166.436H320.934ZM332.312 169.028L326.138 183.716H323.456L325.616 178.748L321.62 169.028H324.446L327.02 175.994L329.63 169.028H332.312ZM336.191 170.468C336.515 170.012 336.959 169.634 337.523 169.334C338.099 169.022 338.753 168.866 339.485 168.866C340.337 168.866 341.105 169.076 341.789 169.496C342.485 169.916 343.031 170.516 343.427 171.296C343.835 172.064 344.039 172.958 344.039 173.978C344.039 174.998 343.835 175.904 343.427 176.696C343.031 177.476 342.485 178.082 341.789 178.514C341.105 178.946 340.337 179.162 339.485 179.162C338.753 179.162 338.105 179.012 337.541 178.712C336.989 178.412 336.539 178.034 336.191 177.578V183.752H333.671V169.028H336.191V170.468ZM341.465 173.978C341.465 173.378 341.339 172.862 341.087 172.43C340.847 171.986 340.523 171.65 340.115 171.422C339.719 171.194 339.287 171.08 338.819 171.08C338.363 171.08 337.931 171.2 337.523 171.44C337.127 171.668 336.803 172.004 336.551 172.448C336.311 172.892 336.191 173.414 336.191 174.014C336.191 174.614 336.311 175.136 336.551 175.58C336.803 176.024 337.127 176.366 337.523 176.606C337.931 176.834 338.363 176.948 338.819 176.948C339.287 176.948 339.719 176.828 340.115 176.588C340.523 176.348 340.847 176.006 341.087 175.562C341.339 175.118 341.465 174.59 341.465 173.978ZM355.14 173.798C355.14 174.158 355.116 174.482 355.068 174.77H347.778C347.838 175.49 348.09 176.054 348.534 176.462C348.978 176.87 349.524 177.074 350.172 177.074C351.108 177.074 351.774 176.672 352.17 175.868H354.888C354.6 176.828 354.048 177.62 353.232 178.244C352.416 178.856 351.414 179.162 350.226 179.162C349.266 179.162 348.402 178.952 347.634 178.532C346.878 178.1 346.284 177.494 345.852 176.714C345.432 175.934 345.222 175.034 345.222 174.014C345.222 172.982 345.432 172.076 345.852 171.296C346.272 170.516 346.86 169.916 347.616 169.496C348.372 169.076 349.242 168.866 350.226 168.866C351.174 168.866 352.02 169.07 352.764 169.478C353.52 169.886 354.102 170.468 354.51 171.224C354.93 171.968 355.14 172.826 355.14 173.798ZM352.53 173.078C352.518 172.43 352.284 171.914 351.828 171.53C351.372 171.134 350.814 170.936 350.154 170.936C349.53 170.936 349.002 171.128 348.57 171.512C348.15 171.884 347.892 172.406 347.796 173.078H352.53ZM375.092 169.028L372.176 179H369.458L367.64 172.034L365.822 179H363.086L360.152 169.028H362.708L364.472 176.624L366.38 169.028H369.044L370.916 176.606L372.68 169.028H375.092ZM382.072 168.884C382.828 168.884 383.5 169.052 384.088 169.388C384.676 169.712 385.132 170.198 385.456 170.846C385.792 171.482 385.96 172.25 385.96 173.15V179H383.44V173.492C383.44 172.7 383.242 172.094 382.846 171.674C382.45 171.242 381.91 171.026 381.226 171.026C380.53 171.026 379.978 171.242 379.57 171.674C379.174 172.094 378.976 172.7 378.976 173.492V179H376.456V165.68H378.976V170.27C379.3 169.838 379.732 169.502 380.272 169.262C380.812 169.01 381.412 168.884 382.072 168.884ZM387.708 173.978C387.708 172.97 387.906 172.076 388.302 171.296C388.71 170.516 389.256 169.916 389.94 169.496C390.636 169.076 391.41 168.866 392.262 168.866C393.006 168.866 393.654 169.016 394.206 169.316C394.77 169.616 395.22 169.994 395.556 170.45V169.028H398.094V179H395.556V177.542C395.232 178.01 394.782 178.4 394.206 178.712C393.642 179.012 392.988 179.162 392.244 179.162C391.404 179.162 390.636 178.946 389.94 178.514C389.256 178.082 388.71 177.476 388.302 176.696C387.906 175.904 387.708 174.998 387.708 173.978ZM395.556 174.014C395.556 173.402 395.436 172.88 395.196 172.448C394.956 172.004 394.632 171.668 394.224 171.44C393.816 171.2 393.378 171.08 392.91 171.08C392.442 171.08 392.01 171.194 391.614 171.422C391.218 171.65 390.894 171.986 390.642 172.43C390.402 172.862 390.282 173.378 390.282 173.978C390.282 174.578 390.402 175.106 390.642 175.562C390.894 176.006 391.218 176.348 391.614 176.588C392.022 176.828 392.454 176.948 392.91 176.948C393.378 176.948 393.816 176.834 394.224 176.606C394.632 176.366 394.956 176.03 395.196 175.598C395.436 175.154 395.556 174.626 395.556 174.014ZM403.489 171.098V175.922C403.489 176.258 403.567 176.504 403.723 176.66C403.891 176.804 404.167 176.876 404.551 176.876H405.721V179H404.137C402.013 179 400.951 177.968 400.951 175.904V171.098H399.763V169.028H400.951V166.562H403.489V169.028H405.721V171.098H403.489ZM369.933 196.028L367.017 206H364.299L362.481 199.034L360.663 206H357.927L354.993 196.028H357.549L359.313 203.624L361.221 196.028H363.885L365.757 203.606L367.521 196.028H369.933ZM370.649 200.978C370.649 199.97 370.847 199.076 371.243 198.296C371.651 197.516 372.197 196.916 372.881 196.496C373.577 196.076 374.351 195.866 375.203 195.866C375.947 195.866 376.595 196.016 377.147 196.316C377.711 196.616 378.161 196.994 378.497 197.45V196.028H381.035V206H378.497V204.542C378.173 205.01 377.723 205.4 377.147 205.712C376.583 206.012 375.929 206.162 375.185 206.162C374.345 206.162 373.577 205.946 372.881 205.514C372.197 205.082 371.651 204.476 371.243 203.696C370.847 202.904 370.649 201.998 370.649 200.978ZM378.497 201.014C378.497 200.402 378.377 199.88 378.137 199.448C377.897 199.004 377.573 198.668 377.165 198.44C376.757 198.2 376.319 198.08 375.851 198.08C375.383 198.08 374.951 198.194 374.555 198.422C374.159 198.65 373.835 198.986 373.583 199.43C373.343 199.862 373.223 200.378 373.223 200.978C373.223 201.578 373.343 202.106 373.583 202.562C373.835 203.006 374.159 203.348 374.555 203.588C374.963 203.828 375.395 203.948 375.851 203.948C376.319 203.948 376.757 203.834 377.165 203.606C377.573 203.366 377.897 203.03 378.137 202.598C378.377 202.154 378.497 201.626 378.497 201.014ZM389.022 195.884C390.21 195.884 391.17 196.262 391.902 197.018C392.634 197.762 393 198.806 393 200.15V206H390.48V200.492C390.48 199.7 390.282 199.094 389.886 198.674C389.49 198.242 388.95 198.026 388.266 198.026C387.57 198.026 387.018 198.242 386.61 198.674C386.214 199.094 386.016 199.7 386.016 200.492V206H383.496V196.028H386.016V197.27C386.352 196.838 386.778 196.502 387.294 196.262C387.822 196.01 388.398 195.884 389.022 195.884ZM398.33 198.098V202.922C398.33 203.258 398.408 203.504 398.564 203.66C398.732 203.804 399.008 203.876 399.392 203.876H400.562V206H398.978C396.854 206 395.792 204.968 395.792 202.904V198.098H394.604V196.028H395.792V193.562H398.33V196.028H400.562V198.098H398.33Z" fill="#FFFFFE"/>
<path d="M421.363 169.028L415.189 183.716H412.507L414.667 178.748L410.671 169.028H413.497L416.071 175.994L418.681 169.028H421.363ZM427.149 179.162C426.189 179.162 425.325 178.952 424.557 178.532C423.789 178.1 423.183 177.494 422.739 176.714C422.307 175.934 422.091 175.034 422.091 174.014C422.091 172.994 422.313 172.094 422.757 171.314C423.213 170.534 423.831 169.934 424.611 169.514C425.391 169.082 426.261 168.866 427.221 168.866C428.181 168.866 429.051 169.082 429.831 169.514C430.611 169.934 431.223 170.534 431.667 171.314C432.123 172.094 432.351 172.994 432.351 174.014C432.351 175.034 432.117 175.934 431.649 176.714C431.193 177.494 430.569 178.1 429.777 178.532C428.997 178.952 428.121 179.162 427.149 179.162ZM427.149 176.966C427.605 176.966 428.031 176.858 428.427 176.642C428.835 176.414 429.159 176.078 429.399 175.634C429.639 175.19 429.759 174.65 429.759 174.014C429.759 173.066 429.507 172.34 429.003 171.836C428.511 171.32 427.905 171.062 427.185 171.062C426.465 171.062 425.859 171.32 425.367 171.836C424.887 172.34 424.647 173.066 424.647 174.014C424.647 174.962 424.881 175.694 425.349 176.21C425.829 176.714 426.429 176.966 427.149 176.966ZM443.614 169.028V179H441.076V177.74C440.752 178.172 440.326 178.514 439.798 178.766C439.282 179.006 438.718 179.126 438.106 179.126C437.326 179.126 436.636 178.964 436.036 178.64C435.436 178.304 434.962 177.818 434.614 177.182C434.278 176.534 434.11 175.766 434.11 174.878V169.028H436.63V174.518C436.63 175.31 436.828 175.922 437.224 176.354C437.62 176.774 438.16 176.984 438.844 176.984C439.54 176.984 440.086 176.774 440.482 176.354C440.878 175.922 441.076 175.31 441.076 174.518V169.028H443.614Z" fill="#6FFFE9"/>
<path d="M596.521 172.7C596.521 171.464 596.797 170.36 597.349 169.388C597.913 168.404 598.675 167.642 599.635 167.102C600.607 166.55 601.693 166.274 602.893 166.274C604.297 166.274 605.527 166.634 606.583 167.354C607.639 168.074 608.377 169.07 608.797 170.342H605.899C605.611 169.742 605.203 169.292 604.675 168.992C604.159 168.692 603.559 168.542 602.875 168.542C602.143 168.542 601.489 168.716 600.913 169.064C600.349 169.4 599.905 169.88 599.581 170.504C599.269 171.128 599.113 171.86 599.113 172.7C599.113 173.528 599.269 174.26 599.581 174.896C599.905 175.52 600.349 176.006 600.913 176.354C601.489 176.69 602.143 176.858 602.875 176.858C603.559 176.858 604.159 176.708 604.675 176.408C605.203 176.096 605.611 175.64 605.899 175.04H608.797C608.377 176.324 607.639 177.326 606.583 178.046C605.539 178.754 604.309 179.108 602.893 179.108C601.693 179.108 600.607 178.838 599.635 178.298C598.675 177.746 597.913 176.984 597.349 176.012C596.797 175.04 596.521 173.936 596.521 172.7ZM613.469 165.68V179H610.949V165.68H613.469ZM617.237 167.84C616.793 167.84 616.421 167.702 616.121 167.426C615.833 167.138 615.689 166.784 615.689 166.364C615.689 165.944 615.833 165.596 616.121 165.32C616.421 165.032 616.793 164.888 617.237 164.888C617.681 164.888 618.047 165.032 618.335 165.32C618.635 165.596 618.785 165.944 618.785 166.364C618.785 166.784 618.635 167.138 618.335 167.426C618.047 167.702 617.681 167.84 617.237 167.84ZM618.479 169.028V179H615.959V169.028H618.479ZM620.321 174.014C620.321 172.982 620.531 172.082 620.951 171.314C621.371 170.534 621.953 169.934 622.697 169.514C623.441 169.082 624.293 168.866 625.253 168.866C626.489 168.866 627.509 169.178 628.313 169.802C629.129 170.414 629.675 171.278 629.951 172.394H627.233C627.089 171.962 626.843 171.626 626.495 171.386C626.159 171.134 625.739 171.008 625.235 171.008C624.515 171.008 623.945 171.272 623.525 171.8C623.105 172.316 622.895 173.054 622.895 174.014C622.895 174.962 623.105 175.7 623.525 176.228C623.945 176.744 624.515 177.002 625.235 177.002C626.255 177.002 626.921 176.546 627.233 175.634H629.951C629.675 176.714 629.129 177.572 628.313 178.208C627.497 178.844 626.477 179.162 625.253 179.162C624.293 179.162 623.441 178.952 622.697 178.532C621.953 178.1 621.371 177.5 620.951 176.732C620.531 175.952 620.321 175.046 620.321 174.014ZM637.701 179L634.317 174.752V179H631.797V165.68H634.317V173.258L637.665 169.028H640.941L636.549 174.032L640.977 179H637.701ZM708.405 173.978C708.405 172.97 708.603 172.076 708.999 171.296C709.407 170.516 709.953 169.916 710.637 169.496C711.333 169.076 712.107 168.866 712.959 168.866C713.703 168.866 714.351 169.016 714.903 169.316C715.467 169.616 715.917 169.994 716.253 170.45V169.028H718.791V179H716.253V177.542C715.929 178.01 715.479 178.4 714.903 178.712C714.339 179.012 713.685 179.162 712.941 179.162C712.101 179.162 711.333 178.946 710.637 178.514C709.953 178.082 709.407 177.476 708.999 176.696C708.603 175.904 708.405 174.998 708.405 173.978ZM716.253 174.014C716.253 173.402 716.133 172.88 715.893 172.448C715.653 172.004 715.329 171.668 714.921 171.44C714.513 171.2 714.075 171.08 713.607 171.08C713.139 171.08 712.707 171.194 712.311 171.422C711.915 171.65 711.591 171.986 711.339 172.43C711.099 172.862 710.979 173.378 710.979 173.978C710.979 174.578 711.099 175.106 711.339 175.562C711.591 176.006 711.915 176.348 712.311 176.588C712.719 176.828 713.151 176.948 713.607 176.948C714.075 176.948 714.513 176.834 714.921 176.606C715.329 176.366 715.653 176.03 715.893 175.598C716.133 175.154 716.253 174.626 716.253 174.014ZM726.778 168.884C727.966 168.884 728.926 169.262 729.658 170.018C730.39 170.762 730.756 171.806 730.756 173.15V179H728.236V173.492C728.236 172.7 728.038 172.094 727.642 171.674C727.246 171.242 726.706 171.026 726.022 171.026C725.326 171.026 724.774 171.242 724.366 171.674C723.97 172.094 723.772 172.7 723.772 173.492V179H721.252V169.028H723.772V170.27C724.108 169.838 724.534 169.502 725.05 169.262C725.578 169.01 726.154 168.884 726.778 168.884ZM732.504 173.978C732.504 172.97 732.702 172.076 733.098 171.296C733.506 170.516 734.058 169.916 734.754 169.496C735.45 169.076 736.224 168.866 737.076 168.866C737.724 168.866 738.342 169.01 738.93 169.298C739.518 169.574 739.986 169.946 740.334 170.414V165.68H742.89V179H740.334V177.524C740.022 178.016 739.584 178.412 739.02 178.712C738.456 179.012 737.802 179.162 737.058 179.162C736.218 179.162 735.45 178.946 734.754 178.514C734.058 178.082 733.506 177.476 733.098 176.696C732.702 175.904 732.504 174.998 732.504 173.978ZM740.352 174.014C740.352 173.402 740.232 172.88 739.992 172.448C739.752 172.004 739.428 171.668 739.02 171.44C738.612 171.2 738.174 171.08 737.706 171.08C737.238 171.08 736.806 171.194 736.41 171.422C736.014 171.65 735.69 171.986 735.438 172.43C735.198 172.862 735.078 173.378 735.078 173.978C735.078 174.578 735.198 175.106 735.438 175.562C735.69 176.006 736.014 176.348 736.41 176.588C736.818 176.828 737.25 176.948 737.706 176.948C738.174 176.948 738.612 176.834 739.02 176.606C739.428 176.366 739.752 176.03 739.992 175.598C740.232 175.154 740.352 174.626 740.352 174.014ZM613.576 196.028L610.66 206H607.942L606.124 199.034L604.306 206H601.57L598.636 196.028H601.192L602.956 203.624L604.864 196.028H607.528L609.4 203.606L611.164 196.028H613.576ZM624.209 200.798C624.209 201.158 624.185 201.482 624.137 201.77H616.847C616.907 202.49 617.159 203.054 617.603 203.462C618.047 203.87 618.593 204.074 619.241 204.074C620.177 204.074 620.843 203.672 621.239 202.868H623.957C623.669 203.828 623.117 204.62 622.301 205.244C621.485 205.856 620.483 206.162 619.295 206.162C618.335 206.162 617.471 205.952 616.703 205.532C615.947 205.1 615.353 204.494 614.921 203.714C614.501 202.934 614.291 202.034 614.291 201.014C614.291 199.982 614.501 199.076 614.921 198.296C615.341 197.516 615.929 196.916 616.685 196.496C617.441 196.076 618.311 195.866 619.295 195.866C620.243 195.866 621.089 196.07 621.833 196.478C622.589 196.886 623.171 197.468 623.579 198.224C623.999 198.968 624.209 199.826 624.209 200.798ZM621.599 200.078C621.587 199.43 621.353 198.914 620.897 198.53C620.441 198.134 619.883 197.936 619.223 197.936C618.599 197.936 618.071 198.128 617.639 198.512C617.219 198.884 616.961 199.406 616.865 200.078H621.599ZM626.553 193.436H629.199L627.255 197.972H625.527L626.553 193.436ZM633.526 192.68V206H631.006V192.68H633.526ZM638.535 192.68V206H636.015V192.68H638.535ZM644.666 200.978C644.666 199.97 644.864 199.076 645.26 198.296C645.668 197.516 646.22 196.916 646.916 196.496C647.612 196.076 648.386 195.866 649.238 195.866C649.886 195.866 650.504 196.01 651.092 196.298C651.68 196.574 652.148 196.946 652.496 197.414V192.68H655.052V206H652.496V204.524C652.184 205.016 651.746 205.412 651.182 205.712C650.618 206.012 649.964 206.162 649.22 206.162C648.38 206.162 647.612 205.946 646.916 205.514C646.22 205.082 645.668 204.476 645.26 203.696C644.864 202.904 644.666 201.998 644.666 200.978ZM652.514 201.014C652.514 200.402 652.394 199.88 652.154 199.448C651.914 199.004 651.59 198.668 651.182 198.44C650.774 198.2 650.336 198.08 649.868 198.08C649.4 198.08 648.968 198.194 648.572 198.422C648.176 198.65 647.852 198.986 647.6 199.43C647.36 199.862 647.24 200.378 647.24 200.978C647.24 201.578 647.36 202.106 647.6 202.562C647.852 203.006 648.176 203.348 648.572 203.588C648.98 203.828 649.412 203.948 649.868 203.948C650.336 203.948 650.774 203.834 651.182 203.606C651.59 203.366 651.914 203.03 652.154 202.598C652.394 202.154 652.514 201.626 652.514 201.014ZM661.941 206.162C660.981 206.162 660.117 205.952 659.349 205.532C658.581 205.1 657.975 204.494 657.531 203.714C657.099 202.934 656.883 202.034 656.883 201.014C656.883 199.994 657.105 199.094 657.549 198.314C658.005 197.534 658.623 196.934 659.403 196.514C660.183 196.082 661.053 195.866 662.013 195.866C662.973 195.866 663.843 196.082 664.623 196.514C665.403 196.934 666.015 197.534 666.459 198.314C666.915 199.094 667.143 199.994 667.143 201.014C667.143 202.034 666.909 202.934 666.441 203.714C665.985 204.494 665.361 205.1 664.569 205.532C663.789 205.952 662.913 206.162 661.941 206.162ZM661.941 203.966C662.397 203.966 662.823 203.858 663.219 203.642C663.627 203.414 663.951 203.078 664.191 202.634C664.431 202.19 664.551 201.65 664.551 201.014C664.551 200.066 664.299 199.34 663.795 198.836C663.303 198.32 662.697 198.062 661.977 198.062C661.257 198.062 660.651 198.32 660.159 198.836C659.679 199.34 659.439 200.066 659.439 201.014C659.439 201.962 659.673 202.694 660.141 203.21C660.621 203.714 661.221 203.966 661.941 203.966ZM676.215 198.098V202.922C676.215 203.258 676.293 203.504 676.449 203.66C676.617 203.804 676.893 203.876 677.277 203.876H678.447V206H676.863C674.739 206 673.677 204.968 673.677 202.904V198.098H672.489V196.028H673.677V193.562H676.215V196.028H678.447V198.098H676.215ZM685.876 195.884C686.632 195.884 687.304 196.052 687.892 196.388C688.48 196.712 688.936 197.198 689.26 197.846C689.596 198.482 689.764 199.25 689.764 200.15V206H687.244V200.492C687.244 199.7 687.046 199.094 686.65 198.674C686.254 198.242 685.714 198.026 685.03 198.026C684.334 198.026 683.782 198.242 683.374 198.674C682.978 199.094 682.78 199.7 682.78 200.492V206H680.26V192.68H682.78V197.27C683.104 196.838 683.536 196.502 684.076 196.262C684.616 196.01 685.216 195.884 685.876 195.884ZM701.43 200.798C701.43 201.158 701.406 201.482 701.358 201.77H694.068C694.128 202.49 694.38 203.054 694.824 203.462C695.268 203.87 695.814 204.074 696.462 204.074C697.398 204.074 698.064 203.672 698.46 202.868H701.178C700.89 203.828 700.338 204.62 699.522 205.244C698.706 205.856 697.704 206.162 696.516 206.162C695.556 206.162 694.692 205.952 693.924 205.532C693.168 205.1 692.574 204.494 692.142 203.714C691.722 202.934 691.512 202.034 691.512 201.014C691.512 199.982 691.722 199.076 692.142 198.296C692.562 197.516 693.15 196.916 693.906 196.496C694.662 196.076 695.532 195.866 696.516 195.866C697.464 195.866 698.31 196.07 699.054 196.478C699.81 196.886 700.392 197.468 700.8 198.224C701.22 198.968 701.43 199.826 701.43 200.798ZM698.82 200.078C698.808 199.43 698.574 198.914 698.118 198.53C697.662 198.134 697.104 197.936 696.444 197.936C695.82 197.936 695.292 198.128 694.86 198.512C694.44 198.884 694.182 199.406 694.086 200.078H698.82ZM710.078 197.576C710.402 197.048 710.822 196.634 711.338 196.334C711.866 196.034 712.466 195.884 713.138 195.884V198.53H712.472C711.68 198.53 711.08 198.716 710.672 199.088C710.276 199.46 710.078 200.108 710.078 201.032V206H707.558V196.028H710.078V197.576ZM724.106 200.798C724.106 201.158 724.082 201.482 724.034 201.77H716.744C716.804 202.49 717.056 203.054 717.5 203.462C717.944 203.87 718.49 204.074 719.138 204.074C720.074 204.074 720.74 203.672 721.136 202.868H723.854C723.566 203.828 723.014 204.62 722.198 205.244C721.382 205.856 720.38 206.162 719.192 206.162C718.232 206.162 717.368 205.952 716.6 205.532C715.844 205.1 715.25 204.494 714.818 203.714C714.398 202.934 714.188 202.034 714.188 201.014C714.188 199.982 714.398 199.076 714.818 198.296C715.238 197.516 715.826 196.916 716.582 196.496C717.338 196.076 718.208 195.866 719.192 195.866C720.14 195.866 720.986 196.07 721.73 196.478C722.486 196.886 723.068 197.468 723.476 198.224C723.896 198.968 724.106 199.826 724.106 200.798ZM721.496 200.078C721.484 199.43 721.25 198.914 720.794 198.53C720.338 198.134 719.78 197.936 719.12 197.936C718.496 197.936 717.968 198.128 717.536 198.512C717.116 198.884 716.858 199.406 716.762 200.078H721.496ZM729.761 206.162C728.945 206.162 728.213 206.018 727.565 205.73C726.917 205.43 726.401 205.028 726.017 204.524C725.645 204.02 725.441 203.462 725.405 202.85H727.943C727.991 203.234 728.177 203.552 728.501 203.804C728.837 204.056 729.251 204.182 729.743 204.182C730.223 204.182 730.595 204.086 730.859 203.894C731.135 203.702 731.273 203.456 731.273 203.156C731.273 202.832 731.105 202.592 730.769 202.436C730.445 202.268 729.923 202.088 729.203 201.896C728.459 201.716 727.847 201.53 727.367 201.338C726.899 201.146 726.491 200.852 726.143 200.456C725.807 200.06 725.639 199.526 725.639 198.854C725.639 198.302 725.795 197.798 726.107 197.342C726.431 196.886 726.887 196.526 727.475 196.262C728.075 195.998 728.777 195.866 729.581 195.866C730.769 195.866 731.717 196.166 732.425 196.766C733.133 197.354 733.523 198.152 733.595 199.16H731.183C731.147 198.764 730.979 198.452 730.679 198.224C730.391 197.984 730.001 197.864 729.509 197.864C729.053 197.864 728.699 197.948 728.447 198.116C728.207 198.284 728.087 198.518 728.087 198.818C728.087 199.154 728.255 199.412 728.591 199.592C728.927 199.76 729.449 199.934 730.157 200.114C730.877 200.294 731.471 200.48 731.939 200.672C732.407 200.864 732.809 201.164 733.145 201.572C733.493 201.968 733.673 202.496 733.685 203.156C733.685 203.732 733.523 204.248 733.199 204.704C732.887 205.16 732.431 205.52 731.831 205.784C731.243 206.036 730.553 206.162 729.761 206.162ZM738.688 198.098V202.922C738.688 203.258 738.766 203.504 738.922 203.66C739.09 203.804 739.366 203.876 739.75 203.876H740.92V206H739.336C737.212 206 736.15 204.968 736.15 202.904V198.098H734.962V196.028H736.15V193.562H738.688V196.028H740.92V198.098H738.688Z" fill="#FFFFFE"/>
<path d="M645.985 172.7C645.985 171.464 646.261 170.36 646.813 169.388C647.377 168.404 648.139 167.642 649.099 167.102C650.071 166.55 651.157 166.274 652.357 166.274C653.761 166.274 654.991 166.634 656.047 167.354C657.103 168.074 657.841 169.07 658.261 170.342H655.363C655.075 169.742 654.667 169.292 654.139 168.992C653.623 168.692 653.023 168.542 652.339 168.542C651.607 168.542 650.953 168.716 650.377 169.064C649.813 169.4 649.369 169.88 649.045 170.504C648.733 171.128 648.577 171.86 648.577 172.7C648.577 173.528 648.733 174.26 649.045 174.896C649.369 175.52 649.813 176.006 650.377 176.354C650.953 176.69 651.607 176.858 652.339 176.858C653.023 176.858 653.623 176.708 654.139 176.408C654.667 176.096 655.075 175.64 655.363 175.04H658.261C657.841 176.324 657.103 177.326 656.047 178.046C655.003 178.754 653.773 179.108 652.357 179.108C651.157 179.108 650.071 178.838 649.099 178.298C648.139 177.746 647.377 176.984 646.813 176.012C646.261 175.04 645.985 173.936 645.985 172.7ZM666.03 168.884C666.786 168.884 667.458 169.052 668.046 169.388C668.634 169.712 669.09 170.198 669.414 170.846C669.75 171.482 669.918 172.25 669.918 173.15V179H667.398V173.492C667.398 172.7 667.2 172.094 666.804 171.674C666.408 171.242 665.868 171.026 665.184 171.026C664.488 171.026 663.936 171.242 663.528 171.674C663.132 172.094 662.934 172.7 662.934 173.492V179H660.414V165.68H662.934V170.27C663.258 169.838 663.69 169.502 664.23 169.262C664.77 169.01 665.37 168.884 666.03 168.884ZM681.584 173.798C681.584 174.158 681.56 174.482 681.512 174.77H674.222C674.282 175.49 674.534 176.054 674.978 176.462C675.422 176.87 675.968 177.074 676.616 177.074C677.552 177.074 678.218 176.672 678.614 175.868H681.332C681.044 176.828 680.492 177.62 679.676 178.244C678.86 178.856 677.858 179.162 676.67 179.162C675.71 179.162 674.846 178.952 674.078 178.532C673.322 178.1 672.728 177.494 672.296 176.714C671.876 175.934 671.666 175.034 671.666 174.014C671.666 172.982 671.876 172.076 672.296 171.296C672.716 170.516 673.304 169.916 674.06 169.496C674.816 169.076 675.686 168.866 676.67 168.866C677.618 168.866 678.464 169.07 679.208 169.478C679.964 169.886 680.546 170.468 680.954 171.224C681.374 171.968 681.584 172.826 681.584 173.798ZM678.974 173.078C678.962 172.43 678.728 171.914 678.272 171.53C677.816 171.134 677.258 170.936 676.598 170.936C675.974 170.936 675.446 171.128 675.014 171.512C674.594 171.884 674.336 172.406 674.24 173.078H678.974ZM682.776 174.014C682.776 172.982 682.986 172.082 683.406 171.314C683.826 170.534 684.408 169.934 685.152 169.514C685.896 169.082 686.748 168.866 687.708 168.866C688.944 168.866 689.964 169.178 690.768 169.802C691.584 170.414 692.13 171.278 692.406 172.394H689.688C689.544 171.962 689.298 171.626 688.95 171.386C688.614 171.134 688.194 171.008 687.69 171.008C686.97 171.008 686.4 171.272 685.98 171.8C685.56 172.316 685.35 173.054 685.35 174.014C685.35 174.962 685.56 175.7 685.98 176.228C686.4 176.744 686.97 177.002 687.69 177.002C688.71 177.002 689.376 176.546 689.688 175.634H692.406C692.13 176.714 691.584 177.572 690.768 178.208C689.952 178.844 688.932 179.162 687.708 179.162C686.748 179.162 685.896 178.952 685.152 178.532C684.408 178.1 683.826 177.5 683.406 176.732C682.986 175.952 682.776 175.046 682.776 174.014ZM700.156 179L696.772 174.752V179H694.252V165.68H696.772V173.258L700.12 169.028H703.396L699.004 174.032L703.432 179H700.156Z" fill="#6FFFE9"/>
<path d="M141 133C145.971 133 150 128.971 150 124C150 119.029 145.971 115 141 115C136.029 115 132 119.029 132 124C132 128.971 136.029 133 141 133Z" fill="#FF6769"/>
<path d="M139.442 120.5V119.252H141.938V128H140.558V120.5H139.442Z" fill="white"/>
<path d="M433 133C437.971 133 442 128.971 442 124C442 119.029 437.971 115 433 115C428.029 115 424 119.029 424 124C424 128.971 428.029 133 433 133Z" fill="#FF6769"/>
<path d="M431.013 126.14C431.781 125.476 432.385 124.932 432.825 124.508C433.273 124.076 433.645 123.628 433.941 123.164C434.237 122.7 434.385 122.236 434.385 121.772C434.385 121.292 434.269 120.916 434.037 120.644C433.813 120.372 433.457 120.236 432.969 120.236C432.497 120.236 432.129 120.388 431.865 120.692C431.609 120.988 431.473 121.388 431.457 121.892H430.137C430.161 120.98 430.433 120.284 430.953 119.804C431.481 119.316 432.149 119.072 432.957 119.072C433.829 119.072 434.509 119.312 434.997 119.792C435.493 120.272 435.741 120.912 435.741 121.712C435.741 122.288 435.593 122.844 435.297 123.38C435.009 123.908 434.661 124.384 434.253 124.808C433.853 125.224 433.341 125.708 432.717 126.26L432.177 126.74H435.981V127.88H430.149V126.884L431.013 126.14Z" fill="white"/>
<path d="M725 133C729.971 133 734 128.971 734 124C734 119.029 729.971 115 725 115C720.029 115 716 119.029 716 124C716 128.971 720.029 133 725 133Z" fill="#FF6769"/>
<path d="M722.134 121.412C722.182 120.668 722.466 120.088 722.986 119.672C723.514 119.256 724.186 119.048 725.002 119.048C725.562 119.048 726.046 119.148 726.454 119.348C726.862 119.548 727.17 119.82 727.378 120.164C727.586 120.508 727.69 120.896 727.69 121.328C727.69 121.824 727.558 122.248 727.294 122.6C727.03 122.952 726.714 123.188 726.346 123.308V123.356C726.818 123.5 727.186 123.764 727.45 124.148C727.714 124.524 727.846 125.008 727.846 125.6C727.846 126.072 727.738 126.492 727.522 126.86C727.306 127.228 726.986 127.52 726.562 127.736C726.138 127.944 725.63 128.048 725.038 128.048C724.174 128.048 723.462 127.828 722.902 127.388C722.35 126.94 722.054 126.3 722.014 125.468H723.334C723.366 125.892 723.53 126.24 723.826 126.512C724.122 126.776 724.522 126.908 725.026 126.908C725.514 126.908 725.89 126.776 726.154 126.512C726.418 126.24 726.55 125.892 726.55 125.468C726.55 124.908 726.37 124.512 726.01 124.28C725.658 124.04 725.114 123.92 724.378 123.92H724.066V122.792H724.39C725.038 122.784 725.53 122.676 725.866 122.468C726.21 122.26 726.382 121.932 726.382 121.484C726.382 121.1 726.258 120.796 726.01 120.572C725.762 120.34 725.41 120.224 724.954 120.224C724.506 120.224 724.158 120.34 723.91 120.572C723.662 120.796 723.514 121.076 723.466 121.412H722.134Z" fill="white"/>
<path d="M288 87L272 71" stroke="#979DAC" stroke-width="4.5" stroke-linecap="round"/>
<path d="M288 87L272 103" stroke="#979DAC" stroke-width="4.5" stroke-linecap="round"/>
<rect x="225" y="84" width="63" height="6" rx="3" fill="#979DAC"/>
<rect x="173" y="84" width="11" height="6" rx="3" fill="#979DAC"/>
<rect x="191" y="84" width="27" height="6" rx="3" fill="#979DAC"/>
<path d="M581 87L565 71" stroke="#979DAC" stroke-width="4.5" stroke-linecap="round"/>
<path d="M581 87L565 103" stroke="#979DAC" stroke-width="4.5" stroke-linecap="round"/>
<rect x="550" y="84" width="31" height="6" rx="3" fill="#979DAC"/>
<rect x="466" y="84" width="64" height="6" rx="3" fill="#979DAC"/>
<circle cx="540" cy="87" r="3" fill="#979DAC"/>
</g>
<defs>
<clipPath id="clip0">
<rect width="756" height="274" fill="white"/>
</clipPath>
</defs>
</svg>
