<svg width="63" height="63" viewBox="0 0 63 63" fill="none" xmlns="http://www.w3.org/2000/svg">
<circle cx="31.5" cy="31.5" r="31.5" fill="#1C2541"/>
<path d="M14.9482 18.7034C15.3634 18.839 15.5837 18.8644 15.7405 18.9703C19.6169 21.5927 23.5145 21.2919 27.3232 18.9194C32.3265 15.8014 37.0333 15.8649 41.7104 19.6481C43.1635 20.8259 45.0022 21.5249 46.6544 22.4569C47.6712 23.0289 48.3618 23.8465 47.7983 25.0412C47.2179 26.2698 46.2138 26.4647 44.9641 25.914C42.6467 24.8972 40.3081 23.9397 37.9568 23.0035C37.2663 22.7281 36.6054 22.1773 35.7623 22.5247C37.0079 24.6896 36.8257 25.4098 34.61 26.4054C31.3436 27.8797 28.0137 29.2142 24.7812 30.7521C22.8112 31.6884 21.0997 31.0317 19.3076 30.3708C14.9525 28.7779 14.9482 28.7863 14.9482 24.2151C14.9482 22.4527 14.9482 20.6903 14.9482 18.7034Z" fill="#BAE8E8"/>
<path d="M38.063 45.3132C35.6651 45.2454 33.8773 44.3939 32.4708 42.7628C31.7633 41.9409 31.4032 40.8606 30.2127 40.4073C29.484 40.1277 29.3188 39.0389 29.8272 38.594C30.9668 37.5942 31.0431 36.1496 31.7167 34.9761C33.0469 32.6629 35.0593 31.375 37.7241 31.3369C40.3846 31.303 42.4224 32.5189 43.8332 34.7939C44.583 36.0098 44.5449 37.6196 45.8413 38.5813C46.1929 38.844 46.2141 39.6828 45.8286 39.9455C43.5747 41.4876 42.5749 44.5845 39.4865 45.0717C38.9357 45.1607 38.385 45.2581 38.063 45.3132Z" fill="#5BC0BE"/>
<path d="M36.5802 37.6237C36.4065 38.5049 35.9532 39.009 35.1356 38.9116C34.4492 38.8311 33.9832 38.3524 34.0341 37.6237C34.0934 36.8103 34.6145 36.3443 35.4321 36.4247C36.1439 36.4968 36.4701 37.0306 36.5802 37.6237Z" fill="#1C2541"/>
<path d="M40.4691 36.3994C41.2275 36.5731 41.7231 37.0307 41.6045 37.8483C41.5071 38.5346 41.0156 38.9879 40.2912 38.9159C39.482 38.8354 39.0202 38.3016 39.1304 37.4882C39.2236 36.8019 39.7193 36.4206 40.4691 36.3994Z" fill="#1C2541"/>
<path d="M40.2022 41.6316C38.3763 43.1525 37.5501 43.1779 35.2285 41.6316C37.029 41.6316 38.6008 41.6316 40.2022 41.6316Z" fill="#1C2541"/>
</svg>
