<svg width="262" height="349" viewBox="0 0 262 349" fill="none" xmlns="http://www.w3.org/2000/svg">
<path d="M46 92C71.4051 92 92 71.4051 92 46C92 20.5949 71.4051 0 46 0C20.5949 0 0 20.5949 0 46C0 71.4051 20.5949 92 46 92Z" fill="#1C2541"/>
<path d="M65.58 59.4301L58.73 52.5801L62.09 49.2201C62.38 48.9301 62.5 48.5101 62.41 48.1101C62.32 47.7101 62.02 47.3901 61.63 47.2601L41.46 40.5401C41.03 40.4001 40.56 40.5101 40.24 40.8301C39.92 41.1501 39.81 41.6201 39.95 42.0501L46.67 62.2201C46.8 62.6101 47.12 62.9101 47.52 63.0001C47.92 63.0901 48.34 62.9801 48.63 62.6801L52 59.3001L58.85 66.1501C59.08 66.3801 59.39 66.5001 59.69 66.5001C59.99 66.5001 60.3 66.3801 60.53 66.1501L65.57 61.1101C66.04 60.6501 66.04 59.8901 65.58 59.4301ZM59.7 63.6301L52.85 56.7801C52.39 56.3201 51.63 56.3201 51.17 56.7801L48.33 59.6201L42.97 43.5301L59.06 48.8901L56.22 51.7301C55.76 52.1901 55.76 52.9501 56.22 53.4101L63.07 60.2601L59.7 63.6301Z" fill="#6FFFE9"/>
<path d="M40.81 35.4401C41.47 35.4401 42 34.9101 42 34.2501V27.1201C42 26.4601 41.47 25.9301 40.81 25.9301C40.15 25.9301 39.62 26.4601 39.62 27.1201V34.2501C39.62 34.9101 40.16 35.4401 40.81 35.4401Z" fill="#6FFFE9"/>
<path d="M31.57 30.4601C31.11 30.0001 30.35 30.0001 29.89 30.4601C29.43 30.9201 29.43 31.6801 29.89 32.1401L34.93 37.1801C35.39 37.6401 36.15 37.6401 36.61 37.1801C37.07 36.7201 37.07 35.9601 36.61 35.5001L31.57 30.4601Z" fill="#6FFFE9"/>
<path d="M34.93 45.59L29.89 50.63C29.43 51.09 29.43 51.85 29.89 52.3101C30.35 52.7701 31.11 52.7701 31.57 52.3101L36.61 47.27C37.07 46.81 37.07 46.05 36.61 45.59C36.15 45.12 35.39 45.12 34.93 45.59Z" fill="#6FFFE9"/>
<path d="M46.69 37.1801L51.73 32.1401C52.19 31.6801 52.19 30.9201 51.73 30.4601C51.27 30.0001 50.51 30.0001 50.05 30.4601L45.01 35.5001C44.55 35.9601 44.55 36.7201 45.01 37.1801C45.48 37.6501 46.23 37.6501 46.69 37.1801Z" fill="#6FFFE9"/>
<path d="M34.87 41.3801C34.87 40.7201 34.34 40.1901 33.68 40.1901H26.55C25.89 40.1901 25.36 40.7201 25.36 41.3801C25.36 42.0401 25.89 42.5701 26.55 42.5701H33.68C34.34 42.5701 34.87 42.0401 34.87 41.3801Z" fill="#6FFFE9"/>
<path d="M101 92C105.971 92 110 87.9706 110 83C110 78.0294 105.971 74 101 74C96.0294 74 92 78.0294 92 83C92 87.9706 96.0294 92 101 92Z" fill="#FF6769"/>
<path d="M99.4423 79.5V78.252H101.938V87H100.558V79.5H99.4423Z" fill="white"/>
<path d="M129.56 34.4C129.56 33.3013 129.805 32.32 130.296 31.456C130.797 30.5813 131.475 29.904 132.328 29.424C133.192 28.9333 134.157 28.688 135.224 28.688C136.472 28.688 137.565 29.008 138.504 29.648C139.443 30.288 140.099 31.1733 140.472 32.304H137.896C137.64 31.7707 137.277 31.3707 136.808 31.104C136.349 30.8373 135.816 30.704 135.208 30.704C134.557 30.704 133.976 30.8587 133.464 31.168C132.963 31.4667 132.568 31.8933 132.28 32.448C132.003 33.0027 131.864 33.6533 131.864 34.4C131.864 35.136 132.003 35.7867 132.28 36.352C132.568 36.9067 132.963 37.3387 133.464 37.648C133.976 37.9467 134.557 38.096 135.208 38.096C135.816 38.096 136.349 37.9627 136.808 37.696C137.277 37.4187 137.64 37.0133 137.896 36.48H140.472C140.099 37.6213 139.443 38.512 138.504 39.152C137.576 39.7813 136.483 40.096 135.224 40.096C134.157 40.096 133.192 39.856 132.328 39.376C131.475 38.8853 130.797 38.208 130.296 37.344C129.805 36.48 129.56 35.4987 129.56 34.4ZM144.625 28.16V40H142.385V28.16H144.625ZM147.974 30.08C147.58 30.08 147.249 29.9573 146.982 29.712C146.726 29.456 146.598 29.1413 146.598 28.768C146.598 28.3947 146.726 28.0853 146.982 27.84C147.249 27.584 147.58 27.456 147.974 27.456C148.369 27.456 148.694 27.584 148.95 27.84C149.217 28.0853 149.35 28.3947 149.35 28.768C149.35 29.1413 149.217 29.456 148.95 29.712C148.694 29.9573 148.369 30.08 147.974 30.08ZM149.078 31.136V40H146.838V31.136H149.078ZM150.715 35.568C150.715 34.6507 150.902 33.8507 151.276 33.168C151.649 32.4747 152.166 31.9413 152.828 31.568C153.489 31.184 154.246 30.992 155.1 30.992C156.198 30.992 157.105 31.2693 157.82 31.824C158.545 32.368 159.03 33.136 159.276 34.128H156.86C156.732 33.744 156.513 33.4453 156.204 33.232C155.905 33.008 155.532 32.896 155.084 32.896C154.444 32.896 153.937 33.1307 153.564 33.6C153.19 34.0587 153.004 34.7147 153.004 35.568C153.004 36.4107 153.19 37.0667 153.564 37.536C153.937 37.9947 154.444 38.224 155.084 38.224C155.99 38.224 156.582 37.8187 156.86 37.008H159.276C159.03 37.968 158.545 38.7307 157.82 39.296C157.094 39.8613 156.188 40.144 155.1 40.144C154.246 40.144 153.489 39.9573 152.828 39.584C152.166 39.2 151.649 38.6667 151.276 37.984C150.902 37.2907 150.715 36.4853 150.715 35.568ZM166.165 40L163.157 36.224V40H160.917V28.16H163.157V34.896L166.133 31.136H169.045L165.141 35.584L169.077 40H166.165ZM176.681 32.976V37.264C176.681 37.5627 176.75 37.7813 176.889 37.92C177.038 38.048 177.283 38.112 177.625 38.112H178.665V40H177.257C175.369 40 174.425 39.0827 174.425 37.248V32.976H173.369V31.136H174.425V28.944H176.681V31.136H178.665V32.976H176.681ZM185.268 31.008C185.94 31.008 186.537 31.1573 187.06 31.456C187.583 31.744 187.988 32.176 188.276 32.752C188.575 33.3173 188.724 34 188.724 34.8V40H186.484V35.104C186.484 34.4 186.308 33.8613 185.956 33.488C185.604 33.104 185.124 32.912 184.516 32.912C183.897 32.912 183.407 33.104 183.044 33.488C182.692 33.8613 182.516 34.4 182.516 35.104V40H180.276V28.16H182.516V32.24C182.804 31.856 183.188 31.5573 183.668 31.344C184.148 31.12 184.681 31.008 185.268 31.008ZM199.094 35.376C199.094 35.696 199.073 35.984 199.03 36.24H192.55C192.603 36.88 192.827 37.3813 193.222 37.744C193.617 38.1067 194.102 38.288 194.678 38.288C195.51 38.288 196.102 37.9307 196.454 37.216H198.87C198.614 38.0693 198.123 38.7733 197.398 39.328C196.673 39.872 195.782 40.144 194.726 40.144C193.873 40.144 193.105 39.9573 192.422 39.584C191.75 39.2 191.222 38.6613 190.838 37.968C190.465 37.2747 190.278 36.4747 190.278 35.568C190.278 34.6507 190.465 33.8453 190.838 33.152C191.211 32.4587 191.734 31.9253 192.406 31.552C193.078 31.1787 193.851 30.992 194.726 30.992C195.569 30.992 196.321 31.1733 196.982 31.536C197.654 31.8987 198.171 32.416 198.534 33.088C198.907 33.7493 199.094 34.512 199.094 35.376ZM196.774 34.736C196.763 34.16 196.555 33.7013 196.15 33.36C195.745 33.008 195.249 32.832 194.662 32.832C194.107 32.832 193.638 33.0027 193.254 33.344C192.881 33.6747 192.651 34.1387 192.566 34.736H196.774Z" fill="#FFFFFE"/>
<path d="M206.782 32.432C207.07 32.0053 207.464 31.6587 207.966 31.392C208.478 31.1253 209.059 30.992 209.71 30.992C210.467 30.992 211.15 31.1787 211.758 31.552C212.376 31.9253 212.862 32.4587 213.214 33.152C213.576 33.8347 213.758 34.6293 213.758 35.536C213.758 36.4427 213.576 37.248 213.214 37.952C212.862 38.6453 212.376 39.184 211.758 39.568C211.15 39.952 210.467 40.144 209.71 40.144C209.048 40.144 208.467 40.016 207.966 39.76C207.475 39.4933 207.08 39.152 206.782 38.736V40H204.542V28.16H206.782V32.432ZM211.47 35.536C211.47 35.0027 211.358 34.544 211.134 34.16C210.92 33.7653 210.632 33.4667 210.27 33.264C209.918 33.0613 209.534 32.96 209.118 32.96C208.712 32.96 208.328 33.0667 207.966 33.28C207.614 33.4827 207.326 33.7813 207.102 34.176C206.888 34.5707 206.782 35.0347 206.782 35.568C206.782 36.1013 206.888 36.5653 207.102 36.96C207.326 37.3547 207.614 37.6587 207.966 37.872C208.328 38.0747 208.712 38.176 209.118 38.176C209.534 38.176 209.918 38.0693 210.27 37.856C210.632 37.6427 210.92 37.3387 211.134 36.944C211.358 36.5493 211.47 36.08 211.47 35.536ZM219.321 40.144C218.468 40.144 217.7 39.9573 217.017 39.584C216.335 39.2 215.796 38.6613 215.401 37.968C215.017 37.2747 214.825 36.4747 214.825 35.568C214.825 34.6613 215.023 33.8613 215.417 33.168C215.823 32.4747 216.372 31.9413 217.065 31.568C217.759 31.184 218.532 30.992 219.385 30.992C220.239 30.992 221.012 31.184 221.705 31.568C222.399 31.9413 222.943 32.4747 223.337 33.168C223.743 33.8613 223.945 34.6613 223.945 35.568C223.945 36.4747 223.737 37.2747 223.321 37.968C222.916 38.6613 222.361 39.2 221.657 39.584C220.964 39.9573 220.185 40.144 219.321 40.144ZM219.321 38.192C219.727 38.192 220.105 38.096 220.457 37.904C220.82 37.7013 221.108 37.4027 221.321 37.008C221.535 36.6133 221.641 36.1333 221.641 35.568C221.641 34.7253 221.417 34.08 220.969 33.632C220.532 33.1733 219.993 32.944 219.353 32.944C218.713 32.944 218.175 33.1733 217.737 33.632C217.311 34.08 217.097 34.7253 217.097 35.568C217.097 36.4107 217.305 37.0613 217.721 37.52C218.148 37.968 218.681 38.192 219.321 38.192ZM230.484 40L228.66 37.248L227.044 40H224.644L227.54 35.552L224.612 31.136H227.14L228.948 33.872L230.58 31.136H232.98L230.068 35.552L233.012 40H230.484ZM132.344 56.432C132.632 56.0053 133.027 55.6587 133.528 55.392C134.04 55.1253 134.621 54.992 135.272 54.992C136.029 54.992 136.712 55.1787 137.32 55.552C137.939 55.9253 138.424 56.4587 138.776 57.152C139.139 57.8347 139.32 58.6293 139.32 59.536C139.32 60.4427 139.139 61.248 138.776 61.952C138.424 62.6453 137.939 63.184 137.32 63.568C136.712 63.952 136.029 64.144 135.272 64.144C134.611 64.144 134.029 64.016 133.528 63.76C133.037 63.4933 132.643 63.152 132.344 62.736V64H130.104V52.16H132.344V56.432ZM137.032 59.536C137.032 59.0027 136.92 58.544 136.696 58.16C136.483 57.7653 136.195 57.4667 135.832 57.264C135.48 57.0613 135.096 56.96 134.68 56.96C134.275 56.96 133.891 57.0667 133.528 57.28C133.176 57.4827 132.888 57.7813 132.664 58.176C132.451 58.5707 132.344 59.0347 132.344 59.568C132.344 60.1013 132.451 60.5653 132.664 60.96C132.888 61.3547 133.176 61.6587 133.528 61.872C133.891 62.0747 134.275 62.176 134.68 62.176C135.096 62.176 135.48 62.0693 135.832 61.856C136.195 61.6427 136.483 61.3387 136.696 60.944C136.92 60.5493 137.032 60.08 137.032 59.536ZM149.188 59.376C149.188 59.696 149.166 59.984 149.124 60.24H142.644C142.697 60.88 142.921 61.3813 143.316 61.744C143.71 62.1067 144.196 62.288 144.772 62.288C145.604 62.288 146.196 61.9307 146.548 61.216H148.964C148.708 62.0693 148.217 62.7733 147.492 63.328C146.766 63.872 145.876 64.144 144.82 64.144C143.966 64.144 143.198 63.9573 142.516 63.584C141.844 63.2 141.316 62.6613 140.932 61.968C140.558 61.2747 140.372 60.4747 140.372 59.568C140.372 58.6507 140.558 57.8453 140.932 57.152C141.305 56.4587 141.828 55.9253 142.5 55.552C143.172 55.1787 143.945 54.992 144.82 54.992C145.662 54.992 146.414 55.1733 147.076 55.536C147.748 55.8987 148.265 56.416 148.628 57.088C149.001 57.7493 149.188 58.512 149.188 59.376ZM146.868 58.736C146.857 58.16 146.649 57.7013 146.244 57.36C145.838 57.008 145.342 56.832 144.756 56.832C144.201 56.832 143.732 57.0027 143.348 57.344C142.974 57.6747 142.745 58.1387 142.66 58.736H146.868ZM153.063 52.16V64H150.823V52.16H153.063ZM159.212 64.144C158.359 64.144 157.591 63.9573 156.908 63.584C156.225 63.2 155.687 62.6613 155.292 61.968C154.908 61.2747 154.716 60.4747 154.716 59.568C154.716 58.6613 154.913 57.8613 155.308 57.168C155.713 56.4747 156.263 55.9413 156.956 55.568C157.649 55.184 158.423 54.992 159.276 54.992C160.129 54.992 160.903 55.184 161.596 55.568C162.289 55.9413 162.833 56.4747 163.228 57.168C163.633 57.8613 163.836 58.6613 163.836 59.568C163.836 60.4747 163.628 61.2747 163.212 61.968C162.807 62.6613 162.252 63.2 161.548 63.584C160.855 63.9573 160.076 64.144 159.212 64.144ZM159.212 62.192C159.617 62.192 159.996 62.096 160.348 61.904C160.711 61.7013 160.999 61.4027 161.212 61.008C161.425 60.6133 161.532 60.1333 161.532 59.568C161.532 58.7253 161.308 58.08 160.86 57.632C160.423 57.1733 159.884 56.944 159.244 56.944C158.604 56.944 158.065 57.1733 157.628 57.632C157.201 58.08 156.988 58.7253 156.988 59.568C156.988 60.4107 157.196 61.0613 157.612 61.52C158.039 61.968 158.572 62.192 159.212 62.192ZM177.767 55.136L175.175 64H172.759L171.143 57.808L169.527 64H167.095L164.487 55.136H166.759L168.327 61.888L170.023 55.136H172.391L174.055 61.872L175.623 55.136H177.767Z" fill="#6FFFE9"/>
<path d="M138.792 154.436V156.47H135.444V167H132.924V156.47H129.576V154.436H138.792ZM150.171 157.028L143.997 171.716H141.315L143.475 166.748L139.479 157.028H142.305L144.879 163.994L147.489 157.028H150.171ZM154.049 158.468C154.373 158.012 154.817 157.634 155.381 157.334C155.957 157.022 156.611 156.866 157.343 156.866C158.195 156.866 158.963 157.076 159.647 157.496C160.343 157.916 160.889 158.516 161.285 159.296C161.693 160.064 161.897 160.958 161.897 161.978C161.897 162.998 161.693 163.904 161.285 164.696C160.889 165.476 160.343 166.082 159.647 166.514C158.963 166.946 158.195 167.162 157.343 167.162C156.611 167.162 155.963 167.012 155.399 166.712C154.847 166.412 154.397 166.034 154.049 165.578V171.752H151.529V157.028H154.049V158.468ZM159.323 161.978C159.323 161.378 159.197 160.862 158.945 160.43C158.705 159.986 158.381 159.65 157.973 159.422C157.577 159.194 157.145 159.08 156.677 159.08C156.221 159.08 155.789 159.2 155.381 159.44C154.985 159.668 154.661 160.004 154.409 160.448C154.169 160.892 154.049 161.414 154.049 162.014C154.049 162.614 154.169 163.136 154.409 163.58C154.661 164.024 154.985 164.366 155.381 164.606C155.789 164.834 156.221 164.948 156.677 164.948C157.145 164.948 157.577 164.828 157.973 164.588C158.381 164.348 158.705 164.006 158.945 163.562C159.197 163.118 159.323 162.59 159.323 161.978ZM172.998 161.798C172.998 162.158 172.974 162.482 172.926 162.77H165.636C165.696 163.49 165.948 164.054 166.392 164.462C166.836 164.87 167.382 165.074 168.03 165.074C168.966 165.074 169.632 164.672 170.028 163.868H172.746C172.458 164.828 171.906 165.62 171.09 166.244C170.274 166.856 169.272 167.162 168.084 167.162C167.124 167.162 166.26 166.952 165.492 166.532C164.736 166.1 164.142 165.494 163.71 164.714C163.29 163.934 163.08 163.034 163.08 162.014C163.08 160.982 163.29 160.076 163.71 159.296C164.13 158.516 164.718 157.916 165.474 157.496C166.23 157.076 167.1 156.866 168.084 156.866C169.032 156.866 169.878 157.07 170.622 157.478C171.378 157.886 171.96 158.468 172.368 159.224C172.788 159.968 172.998 160.826 172.998 161.798ZM170.388 161.078C170.376 160.43 170.142 159.914 169.686 159.53C169.23 159.134 168.672 158.936 168.012 158.936C167.388 158.936 166.86 159.128 166.428 159.512C166.008 159.884 165.75 160.406 165.654 161.078H170.388ZM192.951 157.028L190.035 167H187.317L185.499 160.034L183.681 167H180.945L178.011 157.028H180.567L182.331 164.624L184.239 157.028H186.903L188.775 164.606L190.539 157.028H192.951ZM199.93 156.884C200.686 156.884 201.358 157.052 201.946 157.388C202.534 157.712 202.99 158.198 203.314 158.846C203.65 159.482 203.818 160.25 203.818 161.15V167H201.298V161.492C201.298 160.7 201.1 160.094 200.704 159.674C200.308 159.242 199.768 159.026 199.084 159.026C198.388 159.026 197.836 159.242 197.428 159.674C197.032 160.094 196.834 160.7 196.834 161.492V167H194.314V153.68H196.834V158.27C197.158 157.838 197.59 157.502 198.13 157.262C198.67 157.01 199.27 156.884 199.93 156.884ZM205.567 161.978C205.567 160.97 205.765 160.076 206.161 159.296C206.569 158.516 207.115 157.916 207.799 157.496C208.495 157.076 209.269 156.866 210.121 156.866C210.865 156.866 211.513 157.016 212.065 157.316C212.629 157.616 213.079 157.994 213.415 158.45V157.028H215.953V167H213.415V165.542C213.091 166.01 212.641 166.4 212.065 166.712C211.501 167.012 210.847 167.162 210.103 167.162C209.263 167.162 208.495 166.946 207.799 166.514C207.115 166.082 206.569 165.476 206.161 164.696C205.765 163.904 205.567 162.998 205.567 161.978ZM213.415 162.014C213.415 161.402 213.295 160.88 213.055 160.448C212.815 160.004 212.491 159.668 212.083 159.44C211.675 159.2 211.237 159.08 210.769 159.08C210.301 159.08 209.869 159.194 209.473 159.422C209.077 159.65 208.753 159.986 208.501 160.43C208.261 160.862 208.141 161.378 208.141 161.978C208.141 162.578 208.261 163.106 208.501 163.562C208.753 164.006 209.077 164.348 209.473 164.588C209.881 164.828 210.313 164.948 210.769 164.948C211.237 164.948 211.675 164.834 212.083 164.606C212.491 164.366 212.815 164.03 213.055 163.598C213.295 163.154 213.415 162.626 213.415 162.014ZM221.348 159.098V163.922C221.348 164.258 221.426 164.504 221.582 164.66C221.75 164.804 222.026 164.876 222.41 164.876H223.58V167H221.996C219.872 167 218.81 165.968 218.81 163.904V159.098H217.622V157.028H218.81V154.562H221.348V157.028H223.58V159.098H221.348ZM182.632 184.028L179.716 194H176.998L175.18 187.034L173.362 194H170.626L167.692 184.028H170.248L172.012 191.624L173.92 184.028H176.584L178.456 191.606L180.22 184.028H182.632ZM183.348 188.978C183.348 187.97 183.546 187.076 183.942 186.296C184.35 185.516 184.896 184.916 185.58 184.496C186.276 184.076 187.05 183.866 187.902 183.866C188.646 183.866 189.294 184.016 189.846 184.316C190.41 184.616 190.86 184.994 191.196 185.45V184.028H193.734V194H191.196V192.542C190.872 193.01 190.422 193.4 189.846 193.712C189.282 194.012 188.628 194.162 187.884 194.162C187.044 194.162 186.276 193.946 185.58 193.514C184.896 193.082 184.35 192.476 183.942 191.696C183.546 190.904 183.348 189.998 183.348 188.978ZM191.196 189.014C191.196 188.402 191.076 187.88 190.836 187.448C190.596 187.004 190.272 186.668 189.864 186.44C189.456 186.2 189.018 186.08 188.55 186.08C188.082 186.08 187.65 186.194 187.254 186.422C186.858 186.65 186.534 186.986 186.282 187.43C186.042 187.862 185.922 188.378 185.922 188.978C185.922 189.578 186.042 190.106 186.282 190.562C186.534 191.006 186.858 191.348 187.254 191.588C187.662 191.828 188.094 191.948 188.55 191.948C189.018 191.948 189.456 191.834 189.864 191.606C190.272 191.366 190.596 191.03 190.836 190.598C191.076 190.154 191.196 189.626 191.196 189.014ZM201.721 183.884C202.909 183.884 203.869 184.262 204.601 185.018C205.333 185.762 205.699 186.806 205.699 188.15V194H203.179V188.492C203.179 187.7 202.981 187.094 202.585 186.674C202.189 186.242 201.649 186.026 200.965 186.026C200.269 186.026 199.717 186.242 199.309 186.674C198.913 187.094 198.715 187.7 198.715 188.492V194H196.195V184.028H198.715V185.27C199.051 184.838 199.477 184.502 199.993 184.262C200.521 184.01 201.097 183.884 201.721 183.884ZM211.03 186.098V190.922C211.03 191.258 211.108 191.504 211.264 191.66C211.432 191.804 211.708 191.876 212.092 191.876H213.262V194H211.678C209.554 194 208.492 192.968 208.492 190.904V186.098H207.304V184.028H208.492V181.562H211.03V184.028H213.262V186.098H211.03Z" fill="#FFFFFE"/>
<path d="M139.782 184.028L133.608 198.716H130.926L133.086 193.748L129.09 184.028H131.916L134.49 190.994L137.1 184.028H139.782ZM145.568 194.162C144.608 194.162 143.744 193.952 142.976 193.532C142.208 193.1 141.602 192.494 141.158 191.714C140.726 190.934 140.51 190.034 140.51 189.014C140.51 187.994 140.732 187.094 141.176 186.314C141.632 185.534 142.25 184.934 143.03 184.514C143.81 184.082 144.68 183.866 145.64 183.866C146.6 183.866 147.47 184.082 148.25 184.514C149.03 184.934 149.642 185.534 150.086 186.314C150.542 187.094 150.77 187.994 150.77 189.014C150.77 190.034 150.536 190.934 150.068 191.714C149.612 192.494 148.988 193.1 148.196 193.532C147.416 193.952 146.54 194.162 145.568 194.162ZM145.568 191.966C146.024 191.966 146.45 191.858 146.846 191.642C147.254 191.414 147.578 191.078 147.818 190.634C148.058 190.19 148.178 189.65 148.178 189.014C148.178 188.066 147.926 187.34 147.422 186.836C146.93 186.32 146.324 186.062 145.604 186.062C144.884 186.062 144.278 186.32 143.786 186.836C143.306 187.34 143.066 188.066 143.066 189.014C143.066 189.962 143.3 190.694 143.768 191.21C144.248 191.714 144.848 191.966 145.568 191.966ZM162.033 184.028V194H159.495V192.74C159.171 193.172 158.745 193.514 158.217 193.766C157.701 194.006 157.137 194.126 156.525 194.126C155.745 194.126 155.055 193.964 154.455 193.64C153.855 193.304 153.381 192.818 153.033 192.182C152.697 191.534 152.529 190.766 152.529 189.878V184.028H155.049V189.518C155.049 190.31 155.247 190.922 155.643 191.354C156.039 191.774 156.579 191.984 157.263 191.984C157.959 191.984 158.505 191.774 158.901 191.354C159.297 190.922 159.495 190.31 159.495 189.518V184.028H162.033Z" fill="#6FFFE9"/>
<path d="M46 217C71.4051 217 92 196.405 92 171C92 145.595 71.4051 125 46 125C20.5949 125 0 145.595 0 171C0 196.405 20.5949 217 46 217Z" fill="#1C2541"/>
<path d="M69.89 183.69V157.72H55.46V153.39H59.79V150.5H48.25V153.39H52.58V157.72H20.83V183.69H52.57V188.02H48.24V190.91H59.78V188.02H55.45V183.69H69.89ZM67 160.61V180.81H55.46V160.61H67ZM23.72 180.81V160.61H52.58V180.81H23.72Z" fill="#6FFFE9"/>
<path d="M26.6 163.49V169.26H29.49V166.37H32.38V175.03H29.49V177.92H38.15V175.03H35.26V166.37H38.15V169.26H41.04V163.49H26.6Z" fill="#6FFFE9"/>
<path d="M101 217C105.971 217 110 212.971 110 208C110 203.029 105.971 199 101 199C96.0294 199 92 203.029 92 208C92 212.971 96.0294 217 101 217Z" fill="#FF6769"/>
<path d="M99.0131 210.14C99.7811 209.476 100.385 208.932 100.825 208.508C101.273 208.076 101.645 207.628 101.941 207.164C102.237 206.7 102.385 206.236 102.385 205.772C102.385 205.292 102.269 204.916 102.037 204.644C101.813 204.372 101.457 204.236 100.969 204.236C100.497 204.236 100.129 204.388 99.8651 204.692C99.6091 204.988 99.4731 205.388 99.4571 205.892H98.1371C98.1611 204.98 98.4331 204.284 98.9531 203.804C99.4811 203.316 100.149 203.072 100.957 203.072C101.829 203.072 102.509 203.312 102.997 203.792C103.493 204.272 103.741 204.912 103.741 205.712C103.741 206.288 103.593 206.844 103.297 207.38C103.009 207.908 102.661 208.384 102.253 208.808C101.853 209.224 101.341 209.708 100.717 210.26L100.177 210.74H103.981V211.88H98.1491V210.884L99.0131 210.14Z" fill="white"/>
<path d="M129.63 285.7C129.63 284.464 129.906 283.36 130.458 282.388C131.022 281.404 131.784 280.642 132.744 280.102C133.716 279.55 134.802 279.274 136.002 279.274C137.406 279.274 138.636 279.634 139.692 280.354C140.748 281.074 141.486 282.07 141.906 283.342H139.008C138.72 282.742 138.312 282.292 137.784 281.992C137.268 281.692 136.668 281.542 135.984 281.542C135.252 281.542 134.598 281.716 134.022 282.064C133.458 282.4 133.014 282.88 132.69 283.504C132.378 284.128 132.222 284.86 132.222 285.7C132.222 286.528 132.378 287.26 132.69 287.896C133.014 288.52 133.458 289.006 134.022 289.354C134.598 289.69 135.252 289.858 135.984 289.858C136.668 289.858 137.268 289.708 137.784 289.408C138.312 289.096 138.72 288.64 139.008 288.04H141.906C141.486 289.324 140.748 290.326 139.692 291.046C138.648 291.754 137.418 292.108 136.002 292.108C134.802 292.108 133.716 291.838 132.744 291.298C131.784 290.746 131.022 289.984 130.458 289.012C129.906 288.04 129.63 286.936 129.63 285.7ZM146.578 278.68V292H144.058V278.68H146.578ZM150.346 280.84C149.902 280.84 149.53 280.702 149.23 280.426C148.942 280.138 148.798 279.784 148.798 279.364C148.798 278.944 148.942 278.596 149.23 278.32C149.53 278.032 149.902 277.888 150.346 277.888C150.79 277.888 151.156 278.032 151.444 278.32C151.744 278.596 151.894 278.944 151.894 279.364C151.894 279.784 151.744 280.138 151.444 280.426C151.156 280.702 150.79 280.84 150.346 280.84ZM151.588 282.028V292H149.068V282.028H151.588ZM153.43 287.014C153.43 285.982 153.64 285.082 154.06 284.314C154.48 283.534 155.062 282.934 155.806 282.514C156.55 282.082 157.402 281.866 158.362 281.866C159.598 281.866 160.618 282.178 161.422 282.802C162.238 283.414 162.784 284.278 163.06 285.394H160.342C160.198 284.962 159.952 284.626 159.604 284.386C159.268 284.134 158.848 284.008 158.344 284.008C157.624 284.008 157.054 284.272 156.634 284.8C156.214 285.316 156.004 286.054 156.004 287.014C156.004 287.962 156.214 288.7 156.634 289.228C157.054 289.744 157.624 290.002 158.344 290.002C159.364 290.002 160.03 289.546 160.342 288.634H163.06C162.784 289.714 162.238 290.572 161.422 291.208C160.606 291.844 159.586 292.162 158.362 292.162C157.402 292.162 156.55 291.952 155.806 291.532C155.062 291.1 154.48 290.5 154.06 289.732C153.64 288.952 153.43 288.046 153.43 287.014ZM170.81 292L167.426 287.752V292H164.906V278.68H167.426V286.258L170.774 282.028H174.05L169.658 287.032L174.086 292H170.81ZM129.594 313.978C129.594 312.97 129.792 312.076 130.188 311.296C130.596 310.516 131.142 309.916 131.826 309.496C132.522 309.076 133.296 308.866 134.148 308.866C134.892 308.866 135.54 309.016 136.092 309.316C136.656 309.616 137.106 309.994 137.442 310.45V309.028H139.98V319H137.442V317.542C137.118 318.01 136.668 318.4 136.092 318.712C135.528 319.012 134.874 319.162 134.13 319.162C133.29 319.162 132.522 318.946 131.826 318.514C131.142 318.082 130.596 317.476 130.188 316.696C129.792 315.904 129.594 314.998 129.594 313.978ZM137.442 314.014C137.442 313.402 137.322 312.88 137.082 312.448C136.842 312.004 136.518 311.668 136.11 311.44C135.702 311.2 135.264 311.08 134.796 311.08C134.328 311.08 133.896 311.194 133.5 311.422C133.104 311.65 132.78 311.986 132.528 312.43C132.288 312.862 132.168 313.378 132.168 313.978C132.168 314.578 132.288 315.106 132.528 315.562C132.78 316.006 133.104 316.348 133.5 316.588C133.908 316.828 134.34 316.948 134.796 316.948C135.264 316.948 135.702 316.834 136.11 316.606C136.518 316.366 136.842 316.03 137.082 315.598C137.322 315.154 137.442 314.626 137.442 314.014ZM147.967 308.884C149.155 308.884 150.115 309.262 150.847 310.018C151.579 310.762 151.945 311.806 151.945 313.15V319H149.425V313.492C149.425 312.7 149.227 312.094 148.831 311.674C148.435 311.242 147.895 311.026 147.211 311.026C146.515 311.026 145.963 311.242 145.555 311.674C145.159 312.094 144.961 312.7 144.961 313.492V319H142.441V309.028H144.961V310.27C145.297 309.838 145.723 309.502 146.239 309.262C146.767 309.01 147.343 308.884 147.967 308.884ZM153.694 313.978C153.694 312.97 153.892 312.076 154.288 311.296C154.696 310.516 155.248 309.916 155.944 309.496C156.64 309.076 157.414 308.866 158.266 308.866C158.914 308.866 159.532 309.01 160.12 309.298C160.708 309.574 161.176 309.946 161.524 310.414V305.68H164.08V319H161.524V317.524C161.212 318.016 160.774 318.412 160.21 318.712C159.646 319.012 158.992 319.162 158.248 319.162C157.408 319.162 156.64 318.946 155.944 318.514C155.248 318.082 154.696 317.476 154.288 316.696C153.892 315.904 153.694 314.998 153.694 313.978ZM161.542 314.014C161.542 313.402 161.422 312.88 161.182 312.448C160.942 312.004 160.618 311.668 160.21 311.44C159.802 311.2 159.364 311.08 158.896 311.08C158.428 311.08 157.996 311.194 157.6 311.422C157.204 311.65 156.88 311.986 156.628 312.43C156.388 312.862 156.268 313.378 156.268 313.978C156.268 314.578 156.388 315.106 156.628 315.562C156.88 316.006 157.204 316.348 157.6 316.588C158.008 316.828 158.44 316.948 158.896 316.948C159.364 316.948 159.802 316.834 160.21 316.606C160.618 316.366 160.942 316.03 161.182 315.598C161.422 315.154 161.542 314.626 161.542 314.014ZM184.654 309.028L181.738 319H179.02L177.202 312.034L175.384 319H172.648L169.714 309.028H172.27L174.034 316.624L175.942 309.028H178.606L180.478 316.606L182.242 309.028H184.654ZM195.287 313.798C195.287 314.158 195.263 314.482 195.215 314.77H187.925C187.985 315.49 188.237 316.054 188.681 316.462C189.125 316.87 189.671 317.074 190.319 317.074C191.255 317.074 191.921 316.672 192.317 315.868H195.035C194.747 316.828 194.195 317.62 193.379 318.244C192.563 318.856 191.561 319.162 190.373 319.162C189.413 319.162 188.549 318.952 187.781 318.532C187.025 318.1 186.431 317.494 185.999 316.714C185.579 315.934 185.369 315.034 185.369 314.014C185.369 312.982 185.579 312.076 185.999 311.296C186.419 310.516 187.007 309.916 187.763 309.496C188.519 309.076 189.389 308.866 190.373 308.866C191.321 308.866 192.167 309.07 192.911 309.478C193.667 309.886 194.249 310.468 194.657 311.224C195.077 311.968 195.287 312.826 195.287 313.798ZM192.677 313.078C192.665 312.43 192.431 311.914 191.975 311.53C191.519 311.134 190.961 310.936 190.301 310.936C189.677 310.936 189.149 311.128 188.717 311.512C188.297 311.884 188.039 312.406 187.943 313.078H192.677ZM197.631 306.436H200.277L198.333 310.972H196.605L197.631 306.436ZM204.604 305.68V319H202.084V305.68H204.604ZM209.614 305.68V319H207.094V305.68H209.614ZM215.744 313.978C215.744 312.97 215.942 312.076 216.338 311.296C216.746 310.516 217.298 309.916 217.994 309.496C218.69 309.076 219.464 308.866 220.316 308.866C220.964 308.866 221.582 309.01 222.17 309.298C222.758 309.574 223.226 309.946 223.574 310.414V305.68H226.13V319H223.574V317.524C223.262 318.016 222.824 318.412 222.26 318.712C221.696 319.012 221.042 319.162 220.298 319.162C219.458 319.162 218.69 318.946 217.994 318.514C217.298 318.082 216.746 317.476 216.338 316.696C215.942 315.904 215.744 314.998 215.744 313.978ZM223.592 314.014C223.592 313.402 223.472 312.88 223.232 312.448C222.992 312.004 222.668 311.668 222.26 311.44C221.852 311.2 221.414 311.08 220.946 311.08C220.478 311.08 220.046 311.194 219.65 311.422C219.254 311.65 218.93 311.986 218.678 312.43C218.438 312.862 218.318 313.378 218.318 313.978C218.318 314.578 218.438 315.106 218.678 315.562C218.93 316.006 219.254 316.348 219.65 316.588C220.058 316.828 220.49 316.948 220.946 316.948C221.414 316.948 221.852 316.834 222.26 316.606C222.668 316.366 222.992 316.03 223.232 315.598C223.472 315.154 223.592 314.626 223.592 314.014ZM233.02 319.162C232.06 319.162 231.196 318.952 230.428 318.532C229.66 318.1 229.054 317.494 228.61 316.714C228.178 315.934 227.962 315.034 227.962 314.014C227.962 312.994 228.184 312.094 228.628 311.314C229.084 310.534 229.702 309.934 230.482 309.514C231.262 309.082 232.132 308.866 233.092 308.866C234.052 308.866 234.922 309.082 235.702 309.514C236.482 309.934 237.094 310.534 237.538 311.314C237.994 312.094 238.222 312.994 238.222 314.014C238.222 315.034 237.988 315.934 237.52 316.714C237.064 317.494 236.44 318.1 235.648 318.532C234.868 318.952 233.992 319.162 233.02 319.162ZM233.02 316.966C233.476 316.966 233.902 316.858 234.298 316.642C234.706 316.414 235.03 316.078 235.27 315.634C235.51 315.19 235.63 314.65 235.63 314.014C235.63 313.066 235.378 312.34 234.874 311.836C234.382 311.32 233.776 311.062 233.056 311.062C232.336 311.062 231.73 311.32 231.238 311.836C230.758 312.34 230.518 313.066 230.518 314.014C230.518 314.962 230.752 315.694 231.22 316.21C231.7 316.714 232.3 316.966 233.02 316.966ZM133.176 338.098V342.922C133.176 343.258 133.254 343.504 133.41 343.66C133.578 343.804 133.854 343.876 134.238 343.876H135.408V346H133.824C131.7 346 130.638 344.968 130.638 342.904V338.098H129.45V336.028H130.638V333.562H133.176V336.028H135.408V338.098H133.176ZM142.837 335.884C143.593 335.884 144.265 336.052 144.853 336.388C145.441 336.712 145.897 337.198 146.221 337.846C146.557 338.482 146.725 339.25 146.725 340.15V346H144.205V340.492C144.205 339.7 144.007 339.094 143.611 338.674C143.215 338.242 142.675 338.026 141.991 338.026C141.295 338.026 140.743 338.242 140.335 338.674C139.939 339.094 139.741 339.7 139.741 340.492V346H137.221V332.68H139.741V337.27C140.065 336.838 140.497 336.502 141.037 336.262C141.577 336.01 142.177 335.884 142.837 335.884ZM158.391 340.798C158.391 341.158 158.367 341.482 158.319 341.77H151.029C151.089 342.49 151.341 343.054 151.785 343.462C152.229 343.87 152.775 344.074 153.423 344.074C154.359 344.074 155.025 343.672 155.421 342.868H158.139C157.851 343.828 157.299 344.62 156.483 345.244C155.667 345.856 154.665 346.162 153.477 346.162C152.517 346.162 151.653 345.952 150.885 345.532C150.129 345.1 149.535 344.494 149.103 343.714C148.683 342.934 148.473 342.034 148.473 341.014C148.473 339.982 148.683 339.076 149.103 338.296C149.523 337.516 150.111 336.916 150.867 336.496C151.623 336.076 152.493 335.866 153.477 335.866C154.425 335.866 155.271 336.07 156.015 336.478C156.771 336.886 157.353 337.468 157.761 338.224C158.181 338.968 158.391 339.826 158.391 340.798ZM155.781 340.078C155.769 339.43 155.535 338.914 155.079 338.53C154.623 338.134 154.065 337.936 153.405 337.936C152.781 337.936 152.253 338.128 151.821 338.512C151.401 338.884 151.143 339.406 151.047 340.078H155.781ZM167.039 337.576C167.363 337.048 167.783 336.634 168.299 336.334C168.827 336.034 169.427 335.884 170.099 335.884V338.53H169.433C168.641 338.53 168.041 338.716 167.633 339.088C167.237 339.46 167.039 340.108 167.039 341.032V346H164.519V336.028H167.039V337.576ZM181.067 340.798C181.067 341.158 181.043 341.482 180.995 341.77H173.705C173.765 342.49 174.017 343.054 174.461 343.462C174.905 343.87 175.451 344.074 176.099 344.074C177.035 344.074 177.701 343.672 178.097 342.868H180.815C180.527 343.828 179.975 344.62 179.159 345.244C178.343 345.856 177.341 346.162 176.153 346.162C175.193 346.162 174.329 345.952 173.561 345.532C172.805 345.1 172.211 344.494 171.779 343.714C171.359 342.934 171.149 342.034 171.149 341.014C171.149 339.982 171.359 339.076 171.779 338.296C172.199 337.516 172.787 336.916 173.543 336.496C174.299 336.076 175.169 335.866 176.153 335.866C177.101 335.866 177.947 336.07 178.691 336.478C179.447 336.886 180.029 337.468 180.437 338.224C180.857 338.968 181.067 339.826 181.067 340.798ZM178.457 340.078C178.445 339.43 178.211 338.914 177.755 338.53C177.299 338.134 176.741 337.936 176.081 337.936C175.457 337.936 174.929 338.128 174.497 338.512C174.077 338.884 173.819 339.406 173.723 340.078H178.457ZM186.722 346.162C185.906 346.162 185.174 346.018 184.526 345.73C183.878 345.43 183.362 345.028 182.978 344.524C182.606 344.02 182.402 343.462 182.366 342.85H184.904C184.952 343.234 185.138 343.552 185.462 343.804C185.798 344.056 186.212 344.182 186.704 344.182C187.184 344.182 187.556 344.086 187.82 343.894C188.096 343.702 188.234 343.456 188.234 343.156C188.234 342.832 188.066 342.592 187.73 342.436C187.406 342.268 186.884 342.088 186.164 341.896C185.42 341.716 184.808 341.53 184.328 341.338C183.86 341.146 183.452 340.852 183.104 340.456C182.768 340.06 182.6 339.526 182.6 338.854C182.6 338.302 182.756 337.798 183.068 337.342C183.392 336.886 183.848 336.526 184.436 336.262C185.036 335.998 185.738 335.866 186.542 335.866C187.73 335.866 188.678 336.166 189.386 336.766C190.094 337.354 190.484 338.152 190.556 339.16H188.144C188.108 338.764 187.94 338.452 187.64 338.224C187.352 337.984 186.962 337.864 186.47 337.864C186.014 337.864 185.66 337.948 185.408 338.116C185.168 338.284 185.048 338.518 185.048 338.818C185.048 339.154 185.216 339.412 185.552 339.592C185.888 339.76 186.41 339.934 187.118 340.114C187.838 340.294 188.432 340.48 188.9 340.672C189.368 340.864 189.77 341.164 190.106 341.572C190.454 341.968 190.634 342.496 190.646 343.156C190.646 343.732 190.484 344.248 190.16 344.704C189.848 345.16 189.392 345.52 188.792 345.784C188.204 346.036 187.514 346.162 186.722 346.162ZM195.649 338.098V342.922C195.649 343.258 195.727 343.504 195.883 343.66C196.051 343.804 196.327 343.876 196.711 343.876H197.881V346H196.297C194.173 346 193.111 344.968 193.111 342.904V338.098H191.923V336.028H193.111V333.562H195.649V336.028H197.881V338.098H195.649Z" fill="#FFFFFE"/>
<path d="M179.095 285.7C179.095 284.464 179.371 283.36 179.923 282.388C180.487 281.404 181.249 280.642 182.209 280.102C183.181 279.55 184.267 279.274 185.467 279.274C186.871 279.274 188.101 279.634 189.157 280.354C190.213 281.074 190.951 282.07 191.371 283.342H188.473C188.185 282.742 187.777 282.292 187.249 281.992C186.733 281.692 186.133 281.542 185.449 281.542C184.717 281.542 184.063 281.716 183.487 282.064C182.923 282.4 182.479 282.88 182.155 283.504C181.843 284.128 181.687 284.86 181.687 285.7C181.687 286.528 181.843 287.26 182.155 287.896C182.479 288.52 182.923 289.006 183.487 289.354C184.063 289.69 184.717 289.858 185.449 289.858C186.133 289.858 186.733 289.708 187.249 289.408C187.777 289.096 188.185 288.64 188.473 288.04H191.371C190.951 289.324 190.213 290.326 189.157 291.046C188.113 291.754 186.883 292.108 185.467 292.108C184.267 292.108 183.181 291.838 182.209 291.298C181.249 290.746 180.487 289.984 179.923 289.012C179.371 288.04 179.095 286.936 179.095 285.7ZM199.139 281.884C199.895 281.884 200.567 282.052 201.155 282.388C201.743 282.712 202.199 283.198 202.523 283.846C202.859 284.482 203.027 285.25 203.027 286.15V292H200.507V286.492C200.507 285.7 200.309 285.094 199.913 284.674C199.517 284.242 198.977 284.026 198.293 284.026C197.597 284.026 197.045 284.242 196.637 284.674C196.241 285.094 196.043 285.7 196.043 286.492V292H193.523V278.68H196.043V283.27C196.367 282.838 196.799 282.502 197.339 282.262C197.879 282.01 198.479 281.884 199.139 281.884ZM214.694 286.798C214.694 287.158 214.67 287.482 214.622 287.77H207.332C207.392 288.49 207.644 289.054 208.088 289.462C208.532 289.87 209.078 290.074 209.726 290.074C210.662 290.074 211.328 289.672 211.724 288.868H214.442C214.154 289.828 213.602 290.62 212.786 291.244C211.97 291.856 210.968 292.162 209.78 292.162C208.82 292.162 207.956 291.952 207.188 291.532C206.432 291.1 205.838 290.494 205.406 289.714C204.986 288.934 204.776 288.034 204.776 287.014C204.776 285.982 204.986 285.076 205.406 284.296C205.826 283.516 206.414 282.916 207.17 282.496C207.926 282.076 208.796 281.866 209.78 281.866C210.728 281.866 211.574 282.07 212.318 282.478C213.074 282.886 213.656 283.468 214.064 284.224C214.484 284.968 214.694 285.826 214.694 286.798ZM212.084 286.078C212.072 285.43 211.838 284.914 211.382 284.53C210.926 284.134 210.368 283.936 209.708 283.936C209.084 283.936 208.556 284.128 208.124 284.512C207.704 284.884 207.446 285.406 207.35 286.078H212.084ZM215.885 287.014C215.885 285.982 216.095 285.082 216.515 284.314C216.935 283.534 217.517 282.934 218.261 282.514C219.005 282.082 219.857 281.866 220.817 281.866C222.053 281.866 223.073 282.178 223.877 282.802C224.693 283.414 225.239 284.278 225.515 285.394H222.797C222.653 284.962 222.407 284.626 222.059 284.386C221.723 284.134 221.303 284.008 220.799 284.008C220.079 284.008 219.509 284.272 219.089 284.8C218.669 285.316 218.459 286.054 218.459 287.014C218.459 287.962 218.669 288.7 219.089 289.228C219.509 289.744 220.079 290.002 220.799 290.002C221.819 290.002 222.485 289.546 222.797 288.634H225.515C225.239 289.714 224.693 290.572 223.877 291.208C223.061 291.844 222.041 292.162 220.817 292.162C219.857 292.162 219.005 291.952 218.261 291.532C217.517 291.1 216.935 290.5 216.515 289.732C216.095 288.952 215.885 288.046 215.885 287.014ZM233.265 292L229.881 287.752V292H227.361V278.68H229.881V286.258L233.229 282.028H236.505L232.113 287.032L236.541 292H233.265Z" fill="#6FFFE9"/>
<path d="M46 342C71.4051 342 92 321.405 92 296C92 270.595 71.4051 250 46 250C20.5949 250 0 270.595 0 296C0 321.405 20.5949 342 46 342Z" fill="#1C2541"/>
<path d="M42.2299 307.91C41.9799 307.91 41.7299 307.81 41.5499 307.63L31.1499 297.23C30.7799 296.86 30.7799 296.25 31.1499 295.88L36.5599 290.47C36.9299 290.1 37.5399 290.1 37.9099 290.47L42.2199 294.78L52.9399 284.06C53.1199 283.88 53.3599 283.78 53.6199 283.78C53.8699 283.78 54.1199 283.88 54.2999 284.06L59.7099 289.47C60.0799 289.84 60.0799 290.45 59.7099 290.82L42.8999 307.63C42.7199 307.81 42.4799 307.91 42.2299 307.91ZM33.1799 296.56L42.2299 305.61L57.6799 290.16L53.6199 286.1L42.8999 296.81C42.5299 297.18 41.9199 297.18 41.5499 296.81L37.2399 292.5L33.1799 296.56Z" fill="#6FFFE9"/>
<path d="M45.43 320.33C44.8099 320.33 44.1799 320.31 43.5499 320.26C37.7299 319.81 32.25 317.29 28.12 313.16C23.5 308.54 20.95 302.39 20.95 295.85C20.95 289.31 23.5 283.16 28.12 278.54C32.74 273.92 38.8899 271.37 45.43 271.37C51.97 271.37 58.12 273.92 62.74 278.54C66.87 282.67 69.3899 288.15 69.8399 293.97C70.2799 299.73 68.68 305.46 65.33 310.12C65.02 310.55 64.4199 310.65 64 310.34C63.58 310.03 63.4699 309.43 63.7799 309.01C70.2599 300 69.25 287.76 61.3899 279.9C52.59 271.1 38.27 271.1 29.4699 279.9C20.6699 288.7 20.6699 303.02 29.4699 311.82C37.33 319.68 49.57 320.68 58.58 314.21C59.01 313.9 59.61 314 59.91 314.43C60.22 314.86 60.1199 315.46 59.6899 315.76C55.5499 318.73 50.54 320.33 45.43 320.33Z" fill="#6FFFE9"/>
<path d="M62.07 313.44C61.82 313.44 61.57 313.34 61.39 313.16C61.21 312.98 61.11 312.74 61.11 312.48C61.11 312.23 61.21 311.98 61.39 311.8C61.57 311.62 61.81 311.52 62.07 311.52C62.32 311.52 62.57 311.62 62.75 311.8C62.93 311.98 63.03 312.22 63.03 312.48C63.03 312.73 62.93 312.98 62.75 313.16C62.57 313.34 62.32 313.44 62.07 313.44Z" fill="#6FFFE9"/>
<path d="M101 342C105.971 342 110 337.971 110 333C110 328.029 105.971 324 101 324C96.0294 324 92 328.029 92 333C92 337.971 96.0294 342 101 342Z" fill="#FF6769"/>
<path d="M98.1335 330.412C98.1815 329.668 98.4655 329.088 98.9855 328.672C99.5135 328.256 100.186 328.048 101.002 328.048C101.562 328.048 102.046 328.148 102.454 328.348C102.862 328.548 103.17 328.82 103.378 329.164C103.586 329.508 103.69 329.896 103.69 330.328C103.69 330.824 103.558 331.248 103.294 331.6C103.03 331.952 102.714 332.188 102.346 332.308V332.356C102.818 332.5 103.186 332.764 103.45 333.148C103.714 333.524 103.846 334.008 103.846 334.6C103.846 335.072 103.738 335.492 103.522 335.86C103.306 336.228 102.986 336.52 102.562 336.736C102.138 336.944 101.63 337.048 101.038 337.048C100.174 337.048 99.4615 336.828 98.9015 336.388C98.3495 335.94 98.0535 335.3 98.0135 334.468H99.3335C99.3655 334.892 99.5295 335.24 99.8255 335.512C100.122 335.776 100.522 335.908 101.026 335.908C101.514 335.908 101.89 335.776 102.154 335.512C102.418 335.24 102.55 334.892 102.55 334.468C102.55 333.908 102.37 333.512 102.01 333.28C101.658 333.04 101.114 332.92 100.378 332.92H100.066V331.792H100.39C101.038 331.784 101.53 331.676 101.866 331.468C102.21 331.26 102.382 330.932 102.382 330.484C102.382 330.1 102.258 329.796 102.01 329.572C101.762 329.34 101.41 329.224 100.954 329.224C100.506 329.224 100.158 329.34 99.9095 329.572C99.6615 329.796 99.5135 330.076 99.4655 330.412H98.1335Z" fill="white"/>
</svg>
