<svg width="63" height="63" viewBox="0 0 63 63" fill="none" xmlns="http://www.w3.org/2000/svg">
<circle cx="31.5" cy="31.5" r="31.5" fill="#1C2541"/>
<path d="M28.2786 47.7689C28.2077 47.7689 28.141 47.7689 28.0701 47.7689C26.2642 47.7647 24.0537 48.3993 22.7566 47.5798C21.3135 46.6678 22.4021 44.2722 22.206 42.5365C22.0142 40.8092 21.0132 39.6366 19.9121 38.4388C13.1306 31.0546 15.4787 19.7492 24.5375 16.0255C24.9212 15.8658 25.3257 15.765 25.7094 15.5968C26.8731 15.0925 27.311 15.4077 27.2401 16.7274C27.1442 18.4715 27.1859 20.2283 27.2234 21.9766C27.261 23.7712 27.3611 25.3094 25.2757 26.4231C23.3321 27.4612 22.9901 30.2098 23.9202 32.2397C24.8002 34.1646 27.1066 35.7701 28.996 35.0262C32.2325 33.7485 33.3836 36.0138 34.9434 37.842C35.2521 38.2034 35.5815 38.6573 35.9944 38.8002C37.0872 39.1869 37.9505 38.6994 38.3426 37.6613C38.7555 36.5728 38.2633 35.5977 37.2123 35.3204C36.2906 35.0766 35.6233 34.6059 34.9059 34.0595C33.6964 33.1391 32.9623 32.307 33.3669 30.483C33.8298 28.3942 32.6412 26.6585 30.7393 25.7003C29.901 25.2758 29.6883 24.8135 29.705 23.9561C29.7509 21.4345 29.7926 18.9128 29.6925 16.3954C29.6424 15.1093 30.0929 14.8992 31.2357 15.0337C36.1738 15.6137 40.3028 19.0683 41.529 24.389C42.1379 27.0367 43.2849 29.1297 45.0366 31.0756C46.5297 32.7315 46.3378 33.5552 44.1816 34.1226C42.4757 34.5723 42.1463 35.4464 42.1963 37.0603C42.3131 41.0151 41.8418 41.6245 37.9672 42.8601C35.9194 43.5115 34.3679 44.3983 34.7265 46.92C34.8475 47.7773 34.3095 47.7815 33.7047 47.7773C31.8946 47.7605 30.0845 47.7689 28.2786 47.7689Z" fill="#5BC0BE"/>
</svg>
