<svg width="25" height="24" viewBox="0 0 25 24" fill="none" xmlns="http://www.w3.org/2000/svg">
<path fill-rule="evenodd" clip-rule="evenodd" d="M12.4618 0C5.58104 0 0 5.50719 0 12.2969C0 17.7286 3.59327 22.3305 8.48624 23.9902C9.09786 24.0657 9.32722 23.6885 9.32722 23.3867C9.32722 23.0849 9.32722 22.3305 9.32722 21.2744C5.88685 22.0288 5.12232 19.6147 5.12232 19.6147C4.58716 18.1813 3.74618 17.8041 3.74618 17.8041C2.59939 17.0497 3.82263 17.0497 3.82263 17.0497C5.04587 17.1251 5.73394 18.3322 5.73394 18.3322C6.88073 20.2182 8.63914 19.6901 9.32722 19.3883C9.40367 18.5585 9.78593 18.0304 10.0917 17.7286C7.33945 17.4269 4.43425 16.3707 4.43425 11.6179C4.43425 10.26 4.89297 9.2038 5.73394 8.29851C5.65749 8.07219 5.19878 6.78969 5.88685 5.12999C5.88685 5.12999 6.95719 4.82822 9.32722 6.41249C10.3211 6.11072 11.3914 6.03528 12.4618 6.03528C13.5321 6.03528 14.6024 6.18616 15.5963 6.41249C17.9664 4.82822 19.0367 5.12999 19.0367 5.12999C19.7248 6.78969 19.2661 8.07219 19.1896 8.37395C19.9541 9.2038 20.4893 10.3354 20.4893 11.6934C20.4893 16.4461 17.5841 17.4269 14.8318 17.7286C15.2905 18.1058 15.6728 18.8603 15.6728 19.9919C15.6728 21.6516 15.6728 22.9341 15.6728 23.3867C15.6728 23.6885 15.9021 24.0657 16.5138 23.9902C21.4832 22.3305 25 17.7286 25 12.2969C24.9235 5.50719 19.3425 0 12.4618 0Z" fill="#191717"/>
</svg>
