<svg width="63" height="63" viewBox="0 0 63 63" fill="none" xmlns="http://www.w3.org/2000/svg">
<circle cx="31.5" cy="31.5" r="31.5" fill="#1C2541"/>
<path d="M47.9993 45.7261C47.387 46.6866 46.542 47.0081 45.4113 46.9997C39.7698 46.9538 34.1243 46.9956 28.4829 46.9705C26.0377 46.958 25.3397 45.6468 26.6419 43.4878C29.381 38.9361 32.1568 34.4095 34.9367 29.887C36.3695 27.5568 37.5737 27.5485 38.9983 29.8578C42.0109 34.7227 44.999 39.6001 47.9952 44.4733C47.9993 44.8909 47.9993 45.3085 47.9993 45.7261Z" fill="#FF725E"/>
<path d="M17.4326 17C23.2537 17 28.691 17 34.4875 17C31.8628 19.422 29.4666 21.6102 27.099 23.8276C26.1887 24.6794 25.4539 24.4331 24.6375 23.6647C22.3474 21.51 20.0247 19.3928 17.4326 17Z" fill="#5BC0BE"/>
<path d="M16.4902 31.9452C18.6741 29.7821 20.4498 28.0784 22.1562 26.3036C22.7481 25.6898 23.1399 25.6355 23.8257 26.1742C25.1483 27.214 26.6791 27.2891 27.9649 26.2326C28.8957 25.4726 29.3488 25.8276 29.9407 26.5124C30.3448 26.9801 30.8755 27.3476 31.2143 27.8529C31.6021 28.4375 32.8757 28.6797 32.0797 29.7905C31.4102 30.7217 31.2306 32.0455 29.5243 31.987C25.4055 31.8492 21.2785 31.9452 16.4902 31.9452Z" fill="#5BC0BE"/>
<path d="M15 30.2293C15 25.9741 15 22.2534 15 18.1443C16.9757 19.9608 18.7269 21.627 20.5394 23.2263C21.3354 23.9279 20.7027 24.2536 20.3108 24.667C18.6575 26.4084 16.9921 28.1455 15 30.2293Z" fill="#5BC0BE"/>
<path d="M36.9774 18.1064C36.9774 20.5827 36.9569 22.6415 36.9896 24.7002C37.0019 25.3516 36.8631 25.8402 36.1487 25.7483C35.0914 25.6147 34.5322 27.5857 33.1729 26.3204C30.5971 23.9276 30.5522 23.9777 33.1688 21.5933C34.324 20.5368 35.4792 19.4761 36.9774 18.1064Z" fill="#5BC0BE"/>
<path d="M38.0717 37.4033C38.0717 38.1633 38.0472 38.9192 38.0799 39.675C38.1125 40.4726 37.7819 40.7524 37.0022 40.7399C36.2756 40.7273 35.8674 40.5728 35.8756 39.7251C35.8878 38.5559 35.8062 37.3824 35.7776 36.209C35.7572 35.2903 35.4347 34.3382 37.0553 34.38C38.5983 34.4217 38.1452 35.3571 38.1779 36.1589C38.1942 36.5723 38.1819 36.9857 38.1819 37.3992C38.1411 37.4033 38.1044 37.4033 38.0717 37.4033Z" fill="#1C2541"/>
<path d="M38.2231 43.1703C38.1415 44.0347 37.6312 44.3646 36.9781 44.3604C36.329 44.3604 35.7738 44.043 35.7534 43.2705C35.733 42.3852 36.3331 42.0386 37.0719 42.072C37.7292 42.1096 38.1945 42.5063 38.2231 43.1703Z" fill="#1C2541"/>
</svg>
